<?xml version="1.0" standalone="no"?>
<!DOCTYPE svg PUBLIC "-//W3C//DTD SVG 1.1//EN" "http://www.w3.org/Graphics/SVG/1.1/DTD/svg11.dtd" >
<svg>
<metadata>
Created by FontForge 20090622 at Tue Oct 25 13:53:25 2016
 By deploy user
</metadata>
<defs>
<font id="Segoe-MDL2-Assets-MetroUI" horiz-adv-x="1024" >
  <font-face 
    font-family="Segoe-MDL2-Assets-MetroUI"
    font-weight="400"
    font-stretch="normal"
    units-per-em="1024"
    panose-1="0 0 0 0 0 0 0 0 0 0"
    ascent="960"
    descent="-64"
    bbox="0 -65 2620 961"
    underline-thickness="0"
    underline-position="0"
    unicode-range="U+0001-U+FFFD"
  />
<missing-glyph 
 />
    <glyph glyph-name=".notdef" unicode="&#xfffd;" 
 />
    <glyph glyph-name="glyph1" horiz-adv-x="0" 
d="M0 0v0v0v0z" />
    <glyph glyph-name="glyph1" horiz-adv-x="0" 
d="M0 0v0v0v0z" />
    <glyph glyph-name="uni0001" horiz-adv-x="0" 
d="M0 0v0v0v0z" />
    <glyph glyph-name="space" unicode=" " horiz-adv-x="512" 
d="M0 0v0v0v0z" />
    <glyph glyph-name="uniE001" unicode="&#xe001;" 
d="M873 726l45 -44l-534 -535l-278 278l44 45l234 -232l489 488v0z" />
    <glyph glyph-name="uniE002" unicode="&#xe002;" 
d="M0 960h1024v-1024h-1024v1024v0z" />
    <glyph glyph-name="uniE003" unicode="&#xe003;" 
d="M0 960h1024v-1024h-1024v1024v0zM960 0v896h-896v-896h896v0z" />
    <glyph glyph-name="uniE004" unicode="&#xe004;" 
d="M256 704h512v-512h-512v512v0z" />
    <glyph glyph-name="uniE005" unicode="&#xe005;" 
d="M0 960h1024v-1024h-1024v1024v0zM384 147l470 470l-44 45l-426 -424l-169 168l-45 -44z" />
    <glyph glyph-name="uniE006" unicode="&#xe006;" 
d="M752 896q56 0 106 -21q49 -22 86 -59q37 -36 59 -86q21 -50 21 -106q0 -54 -21 -104q-20 -50 -58 -88l-433 -432l-432 431q-38 38 -59 88t-21 105q0 56 21 106q21 49 58 86t87 58q49 22 106 22q41 0 74 -9q32 -10 60 -27q28 -16 53 -40l53 -51l53 51q25 23 53 40
q27 17 60 26q32 10 74 10v0zM899 477q29 29 45 67q15 38 15 80q0 43 -15 81q-16 38 -45 66q-28 27 -66 43q-37 16 -81 16q-42 0 -74 -13q-33 -13 -60 -35q-28 -21 -53 -49l-53 -55l-52 54q-26 28 -54 50q-27 22 -60 36t-74 14q-43 0 -81 -16t-66 -45q-28 -28 -45 -66
q-16 -38 -16 -81q0 -41 16 -79q15 -38 45 -68l387 -387z" />
    <glyph glyph-name="uniE007" unicode="&#xe007;" 
d="M752 896q38 0 73 -10q34 -9 64 -27q30 -17 55 -42t43 -55q17 -30 27 -65t10 -72q0 -54 -21 -104q-20 -50 -58 -88l-433 -433l-432 432q-38 38 -59 88t-21 104q0 38 10 73q9 34 27 64q17 30 42 55t55 43q30 17 65 27t72 10q55 0 106 -21q51 -22 89 -61l-140 -142l223 -224
l-146 -146l45 -46l192 192l-224 224q24 24 48 51l49 51q24 24 51 47q26 22 55 39q29 16 62 26t71 10v0z" />
    <glyph glyph-name="uniE00A" unicode="&#xe00a;" 
d="M1024 576l-316 -243l124 -397l-320 246l-320 -246l124 397l-316 243h392l120 384l120 -384h392v0z" />
    <glyph glyph-name="uniE00B" unicode="&#xe00b;" 
d="M944 816q27 -26 45 -57q17 -32 26 -66t9 -69t-9 -69q-8 -34 -26 -65q-18 -32 -44 -58l-433 -432l-432 431q-27 27 -45 58q-17 32 -26 66q-9 33 -9 69q0 35 9 69q8 34 26 65q18 32 44 58q39 39 89 59q49 21 104 21q54 0 104 -20q49 -21 88 -59l48 -48l47 47q39 39 89 59
q49 21 104 21q54 0 104 -20q49 -21 88 -59v-1z" />
    <glyph glyph-name="uniE010" unicode="&#xe010;" 
d="M977 193l-465 465l-465 -464l-45 44l510 511l510 -510l-44 -45z" />
    <glyph glyph-name="uniE011" unicode="&#xe011;" 
d="M512 269l457 457l45 -44l-502 -503l-502 502l44 45l458 -457v0z" />
    <glyph glyph-name="uniE052" unicode="&#xe052;" 
d="M512 576q39 0 74 -15t62 -41q26 -26 41 -61t15 -75t-15 -75q-15 -34 -41 -61q-26 -26 -61 -41t-75 -15t-75 15q-34 15 -61 41q-26 26 -41 61t-15 75q0 39 15 74t41 62q26 26 61 41t75 15v0zM512 256q26 0 50 10q23 10 40 27q18 18 28 41t10 50q0 26 -10 50q-10 23 -27 40
q-18 18 -41 28t-50 10q-26 0 -50 -10q-23 -10 -40 -27q-18 -18 -28 -41t-10 -50q0 -26 10 -50q10 -23 27 -40q18 -18 41 -28t50 -10v0zM512 832q71 0 142 -18q70 -17 133 -52q62 -34 113 -85t83 -117q20 -41 30 -86q11 -44 11 -90h-64q0 59 -18 110q-18 52 -50 94
q-31 43 -74 76q-43 34 -93 57t-104 35q-55 12 -109 12t-108 -12q-55 -12 -105 -35q-49 -23 -92 -56q-43 -34 -75 -76q-32 -43 -50 -94q-18 -52 -18 -111h-64q0 46 10 90q11 44 31 86q32 66 83 117q50 50 113 85q62 34 133 52q70 18 142 18v0z" />
    <glyph glyph-name="uniE07F" unicode="&#xe07f;" 
d="M1 448q6 66 31 127t68 111l45 -45q-34 -41 -54 -90q-20 -50 -25 -103h-64h-1zM145 731q51 43 112 69q61 25 127 30v-63q-53 -6 -102 -26q-50 -20 -91 -54zM101 146q-43 50 -69 111q-25 61 -30 127h63q6 -53 26 -102q20 -50 54 -91zM384 2q-66 5 -127 30t-111 68l45 45
q41 -34 90 -54q50 -20 103 -25v-64v0zM830 384q-5 -66 -30 -127t-68 -111l-45 45q34 41 54 90q20 50 25 103h64v0zM687 101q-51 -43 -112 -69q-61 -25 -127 -30v63q53 6 102 26q50 20 91 54zM512 896v-384h96l-128 -128l-128 128h96v384h64v0zM896 352v96h-261l63 64h198v96
l128 -128z" />
    <glyph glyph-name="uniE087" unicode="&#xe087;" 
d="M891 768q15 0 28 -6q12 -6 21 -16q9 -9 15 -23q5 -13 5 -27v-432q0 -14 -5 -27t-14 -23t-22 -16q-12 -6 -27 -6h-823q-15 0 -28 6q-12 6 -21 16q-9 9 -15 22q-5 13 -5 28v432q0 14 5 27t14 23t22 16q12 6 27 6h823v0zM896 696q0 5 -4 8h-823q-5 -2 -5 -8v-432q0 -5 4 -8
h823q5 2 5 8v432v0zM192 576h-64v64h64v-64v0zM128 512h128v-64h-128v64v0zM704 512h128v-64h-128v64v0zM704 384h128v-64h-128v64v0zM128 384h128v-64h-128v64v0zM320 384h320v-64h-320v64v0zM320 576h-64v64h64v-64v0zM320 512h64v-64h-64v64v0zM448 512h64v-64h-64v64v0z
M576 512h64v-64h-64v64v0zM448 576h-64v64h64v-64v0zM576 576h-64v64h64v-64v0zM704 576h-64v64h64v-64v0zM768 640h64v-64h-64v64v0z" />
    <glyph glyph-name="uniE08F" unicode="&#xe08f;" 
d="M891 768q15 0 28 -6q12 -5 21 -15t15 -23q5 -13 5 -28v-432q0 -14 -5 -27t-14 -23t-22 -16q-12 -6 -27 -6h-823q-15 0 -28 6q-12 5 -21 15t-15 23q-5 13 -5 28v432q0 14 5 27t14 23t22 16q12 6 27 6h823v0zM896 696q0 1 -1 5q-1 3 -3 3h-823q-3 0 -4 -3t-1 -5v-432
q0 -1 1 -5q1 -3 3 -3h823q3 0 4 3t1 5v432v0zM128 640h64v-64h-64v64v0zM768 384h64v-64h-64v64v0zM128 384h64v-64h-64v64v0zM256 384h128v-64h-128v64v0zM576 384h128v-64h-128v64v0zM320 576h-64v64h64v-64v0zM128 512h64v-64h-64v64v0zM320 448h-64v64h64v-64v0z
M640 512h64v-64h-64v64v0zM768 512h64v-64h-64v64v0zM640 640h64v-64h-64v64v0zM768 640h64v-64h-64v64v0z" />
    <glyph glyph-name="uniE094" unicode="&#xe094;" 
d="M672 960q48 0 93 -12q45 -13 84 -36t72 -55q32 -32 55 -71t35 -84q13 -45 13 -94q0 -48 -12 -93q-13 -45 -36 -84t-55 -72q-32 -32 -71 -55t-84 -35q-45 -13 -94 -13q-62 0 -120 21q-57 21 -105 60l-392 -391q-10 -10 -23 -10t-22 9q-10 10 -10 23t9 22l392 393
q-39 48 -60 105t-21 120q0 48 12 93q13 45 36 84t55 72q32 32 71 55t84 35q45 13 94 13v0zM672 320q59 0 112 23q52 22 91 61t62 92q23 52 23 112q0 59 -23 112q-22 52 -61 91t-92 62q-52 23 -112 23q-59 0 -112 -23q-52 -22 -91 -61t-62 -92q-23 -52 -23 -112
q0 -59 23 -112q22 -52 61 -91t92 -62q52 -23 112 -23v0z" />
    <glyph glyph-name="uniE0A2" unicode="&#xe0a2;" 
d="M0 960h1024v-1024h-1024v1024v0zM960 0v896h-896v-896h896v0zM384 146l-214 215l44 45l170 -168l425 424l45 -44l-470 -471v-1z" />
    <glyph glyph-name="uniE0A6" unicode="&#xe0a6;" 
d="M1024 480v-64h-899l393 -393l-44 -45l-471 470l470 470l45 -44l-393 -394h899v0z" />
    <glyph glyph-name="uniE0AB" unicode="&#xe0ab;" 
d="M550 918l471 -470l-470 -470l-45 44l393 394h-899v64h899l-393 393l44 45v0z" />
    <glyph glyph-name="uniE0B8" unicode="&#xe0b8;" 
d="M1024 416h-1024v64h1024v-64v0z" />
    <glyph glyph-name="uniE100" unicode="&#xe100;" 
d="M128 64v768h64v-768h-64v0zM352 448l544 384v-768zM832 187v521l-369 -260z" />
    <glyph glyph-name="uniE101" unicode="&#xe101;" 
d="M832 832h64v-768h-64v768v0zM128 64v768l544 -384zM192 708v-520l369 260z" />
    <glyph glyph-name="uniE102" unicode="&#xe102;" 
d="M192 896l640 -448l-640 -448v896v0zM256 773v-650l464 325z" />
    <glyph glyph-name="uniE103" unicode="&#xe103;" 
d="M320 64v768h64v-768h-64v0zM640 832h64v-768h-64v768v0z" />
    <glyph glyph-name="uniE104" unicode="&#xe104;" 
d="M1024 792q0 -32 -12 -63q-13 -31 -37 -55l-658 -659l-317 -79l79 316l658 659q24 24 55 36q31 13 64 13q35 0 65 -13q31 -13 54 -36q22 -23 36 -53q13 -31 13 -65v-1zM163 246q53 -17 91 -56q38 -38 56 -91l540 541l-146 146zM88 24l164 41q-4 23 -16 43q-11 21 -27 37
t-36 27q-21 11 -44 16zM896 685q12 13 24 24q11 11 20 23t15 27q5 14 5 33q0 21 -8 40t-23 33q-14 14 -33 23q-18 8 -40 8q-19 0 -33 -5t-27 -14q-12 -9 -23 -21l-23 -24z" />
    <glyph glyph-name="uniE105" unicode="&#xe105;" 
d="M896 896q13 0 25 -5q11 -5 20 -14q9 -8 14 -20q5 -11 5 -25v-832h-781l-115 115v717q0 13 5 25q5 11 14 20q8 9 20 14q11 5 25 5h768v0zM256 512h512v320h-512v-320v0zM640 256h-320v-192h64v128h64v-128h192v192v0zM896 832h-64v-384h-640v384h-64v-690l77 -78h51v256
h448v-256h192v768v0z" />
    <glyph glyph-name="uniE106" unicode="&#xe106;" 
d="M557 448l457 -457l-44 -45l-458 456l-457 -456l-45 44l456 458l-456 457l44 45l458 -456l457 456l45 -44z" />
    <glyph glyph-name="uniE107" unicode="&#xe107;" 
d="M896 768h-64v-736q0 -20 -7 -37q-8 -18 -21 -31t-30 -20q-18 -8 -38 -8h-512q-20 0 -37 7q-18 8 -31 21t-20 30q-8 18 -8 38v736h-64v64h256v64q0 13 5 25q5 11 14 20q8 9 20 14q11 5 25 5h192q13 0 25 -5q11 -5 20 -14q9 -8 14 -20q5 -11 5 -25v-64h256v-64v0zM384 832
h192v64h-192v-64v0zM768 768h-576v-736q0 -13 9 -22q10 -10 23 -10h512q13 0 22 9q10 10 10 23v736v0zM384 128h-64v512h64v-512v0zM512 128h-64v512h64v-512v0zM640 128h-64v512h64v-512v0z" />
    <glyph glyph-name="uniE109" unicode="&#xe109;" 
d="M1024 480v-64h-480v-480h-64v480h-480v64h480v480h64v-480h480v0z" />
    <glyph glyph-name="uniE10A" unicode="&#xe10a;" 
d="M902 793l-344 -345l344 -345l-44 -45l-346 344l-345 -344l-45 44l344 346l-344 345l44 45l346 -344l345 344l45 -44v-1z" />
    <glyph glyph-name="uniE10C" unicode="&#xe10c;" 
d="M128 512q13 0 25 -5q11 -5 20 -14q9 -8 14 -20q5 -11 5 -25q0 -13 -5 -25q-5 -11 -14 -20q-8 -9 -20 -14q-11 -5 -25 -5q-13 0 -25 5q-11 5 -20 14q-9 8 -14 20q-5 11 -5 25q0 13 5 25q5 11 14 20q8 9 20 14q11 5 25 5v0zM512 512q13 0 25 -5q11 -5 20 -14q9 -8 14 -20
q5 -11 5 -25q0 -13 -5 -25q-5 -11 -14 -20q-8 -9 -20 -14q-11 -5 -25 -5q-13 0 -25 5q-11 5 -20 14q-9 8 -14 20q-5 11 -5 25q0 13 5 25q5 11 14 20q8 9 20 14q11 5 25 5v0zM896 512q13 0 25 -5q11 -5 20 -14q9 -8 14 -20q5 -11 5 -25q0 -13 -5 -25q-5 -11 -14 -20
q-8 -9 -20 -14q-11 -5 -25 -5q-13 0 -25 5q-11 5 -20 14q-9 8 -14 20q-5 11 -5 25q0 13 5 25q5 11 14 20q8 9 20 14q11 5 25 5v0z" />
    <glyph glyph-name="uniE10D" unicode="&#xe10d;" 
d="M576 704h210l-67 70t-67 61q-35 26 -77 43q-41 16 -95 16q-58 0 -110 -23q-52 -22 -91 -61t-62 -91t-23 -111q0 -56 21 -108q22 -51 61 -91l418 -418l-44 -45l-419 417q-48 49 -75 113q-26 63 -26 132q0 48 12 92q13 45 36 84t55 71t71 55t83 35q45 13 93 13q42 0 77 -8
q34 -7 64 -21t56 -33t52 -43q25 -23 50 -49l53 -54v210h64v-320h-320v64v0z" />
    <glyph glyph-name="uniE10E" unicode="&#xe10e;" 
d="M544 958q48 0 92 -12q45 -13 84 -36t71 -55t55 -71t35 -83q13 -45 13 -93q0 -68 -26 -132t-75 -112l-418 -418l-45 44l417 419q40 39 61 91q22 52 22 108q0 58 -23 110q-22 52 -61 91t-91 62t-111 23q-54 0 -95 -16t-76 -43t-68 -61l-67 -70h210v-64h-320v320h64v-210
l53 54q25 26 50 49t52 43q26 19 56 33q29 13 64 21t77 8v0z" />
    <glyph glyph-name="uniE10F" unicode="&#xe10f;" 
d="M512 877l470 -470l-44 -45l-42 40v-402h-320v320h-128v-320h-320v402l-41 -40l-45 44zM832 64v402l-320 320l-320 -319v-403h192v320h256v-320h192v0z" />
    <glyph glyph-name="uniE110" unicode="&#xe110;" 
d="M982 486l-44 -44l-394 393v-899h-64v899l-393 -393l-45 44l470 471l470 -470v-1z" />
    <glyph glyph-name="uniE114" unicode="&#xe114;" 
d="M1024 832v-768h-1024v768h274l64 64h347l64 -64h275v0zM960 768h-237l-64 64h-293l-64 -64h-238v-640h896v640v0zM512 704q53 0 100 -20q46 -20 81 -55q35 -34 55 -81t20 -100t-20 -100q-20 -46 -55 -81q-34 -35 -81 -55t-100 -20t-100 20q-46 20 -81 55q-35 34 -55 81
t-20 100t20 100q20 46 55 81q34 35 81 55t100 20v0zM512 256q39 0 74 15t61 41t42 61q15 35 15 75q0 39 -15 74t-41 61t-61 42q-35 15 -75 15q-39 0 -74 -15t-61 -41t-42 -61q-15 -35 -15 -75q0 -39 15 -74t41 -61t61 -42q35 -15 75 -15v0zM160 704q13 0 22 -9
q10 -10 10 -23t-9 -22q-10 -10 -23 -10t-22 9q-10 10 -10 23t9 22q10 10 23 10v0z" />
    <glyph glyph-name="uniE115" unicode="&#xe115;" 
d="M832 448q0 -19 -2 -39q-2 -19 -7 -38l121 -50l-36 -89l-122 50q-20 -32 -47 -60q-28 -28 -61 -48l50 -121l-89 -37l-50 121q-19 -4 -38 -7q-19 -2 -39 -2q-19 0 -39 2q-19 2 -38 7l-50 -121l-89 36l50 122q-32 20 -60 47q-28 28 -48 61l-121 -50l-37 89l121 50
q-4 19 -7 38q-2 19 -2 39q0 19 2 39q2 19 7 38l-121 50l36 89l122 -50q20 32 47 60q28 28 61 48l-50 121l89 37l50 -121q19 4 38 7q19 2 39 2q19 0 39 -2q19 -2 38 -7l50 121l89 -36l-50 -122q32 -20 60 -47q28 -28 48 -61l121 50l37 -89l-121 -50q4 -19 7 -38q2 -19 2 -39
v0zM288 448q0 -46 18 -87q17 -41 48 -71q30 -30 71 -48q40 -18 87 -18q46 0 87 18q41 17 71 48q30 30 48 71q18 40 18 87q0 46 -18 87q-17 41 -48 71q-30 30 -71 48q-40 18 -87 18q-46 0 -87 -18q-41 -17 -71 -48q-30 -30 -48 -71q-18 -40 -18 -87v0z" />
    <glyph glyph-name="uniE116" unicode="&#xe116;" 
d="M1024 708v-520l-256 128v-124h-768v512h768v-124zM704 256v384h-640v-384h640v0zM960 291v313l-192 -96v-120z" />
    <glyph glyph-name="uniE117" unicode="&#xe117;" 
d="M512 0q77 0 148 24q70 23 129 67q58 43 101 104q43 60 66 134l61 -18q-25 -84 -74 -153q-50 -68 -117 -118q-66 -49 -147 -77q-80 -27 -167 -27q-68 0 -133 17t-123 49t-107 79q-49 46 -85 104v-121h-64v256h256v-64h-158q29 -58 73 -106q44 -47 98 -80t116 -52
q61 -18 127 -18v0zM1024 832v-256h-256v64h158q-29 58 -73 106q-44 47 -98 80t-116 52q-61 18 -127 18q-77 0 -148 -24q-70 -23 -129 -67q-58 -43 -101 -104q-43 -60 -66 -134l-61 18q25 83 74 152q50 69 117 119q66 49 147 77q80 27 167 27q68 0 133 -17t123 -49t107 -79
q49 -46 85 -104v121h64v0z" />
    <glyph glyph-name="uniE118" unicode="&#xe118;" 
d="M768 -64h-576v64h576v-64v0zM790 361l-310 -312l-310 312l44 45l234 -234v788h64v-788l233 234z" />
    <glyph glyph-name="uniE119" unicode="&#xe119;" 
d="M0 768h1024v-640h-1024v640v0zM952 704h-880l440 -220zM64 192h896v444l-448 -223l-448 223v-444v0z" />
    <glyph glyph-name="uniE11B" unicode="&#xe11b;" 
d="M448 0h64v-64h-64v64v0zM480 960q39 0 76 -10t69 -29t58 -45q27 -27 46 -59q18 -32 29 -69q10 -36 10 -76q0 -42 -11 -76t-29 -62t-41 -52l-47 -47l-47 -45q-23 -22 -41 -47t-29 -54t-11 -65v-96h-64v96q0 42 11 76t29 62t41 52t47 46l47 45q23 23 41 48t29 54t11 65
q0 46 -18 87q-17 41 -48 71q-30 30 -71 48q-40 18 -87 18q-46 0 -87 -18q-41 -17 -71 -48q-30 -30 -48 -71q-18 -40 -18 -87h-64q0 39 10 76t29 69t45 58q27 27 59 46q32 18 69 29q36 10 76 10v0z" />
    <glyph glyph-name="uniE11C" unicode="&#xe11c;" 
d="M768 960v-64h-576v64h576v0zM790 535l-44 -45l-234 234v-788h-64v788l-233 -234l-45 44l310 313z" />
    <glyph glyph-name="uniE11D" unicode="&#xe11d;" 
d="M512 960q70 0 136 -18q65 -18 122 -52q57 -33 104 -80q47 -46 80 -103t52 -123q18 -65 18 -136q0 -70 -18 -136q-18 -65 -52 -122q-33 -57 -80 -104q-46 -47 -103 -80t-123 -52q-65 -18 -136 -18q-70 0 -136 18q-65 18 -122 52q-57 33 -104 80q-47 46 -80 103t-52 123
q-18 65 -18 136q0 70 18 136q18 65 52 122q33 57 80 104q46 47 103 80t123 52q65 18 136 18v0zM512 0q61 0 119 16q57 16 107 45q49 29 90 70t71 91q29 50 45 107t16 119q0 61 -16 119q-16 57 -45 107q-29 49 -70 90t-91 71q-50 29 -107 45t-119 16q-61 0 -119 -16
q-57 -16 -107 -45q-49 -29 -90 -70t-71 -91q-29 -50 -45 -107t-16 -119q0 -61 16 -119q16 -57 45 -107q29 -49 70 -90t91 -71q50 -29 107 -45t119 -16v0zM320 704q13 0 25 -5q11 -5 20 -14q9 -8 14 -20q5 -11 5 -25h-128q0 13 5 25q5 11 14 20q8 9 20 14q11 5 25 5v0z
M704 704q13 0 25 -5q11 -5 20 -14q9 -8 14 -20q5 -11 5 -25h-128q0 13 5 25q5 11 14 20q8 9 20 14q11 5 25 5v0zM736 576q20 0 37 -7q18 -8 31 -21t20 -30q8 -18 8 -38v-32q0 -66 -25 -125q-25 -58 -68 -101q-44 -44 -102 -69t-125 -25q-66 0 -125 25q-58 25 -101 68
q-44 44 -69 102t-25 125q0 24 4 47t14 41q11 18 30 29q18 11 48 11q37 0 64 -10q28 -10 53 -22q24 -12 50 -22q25 -10 57 -10t57 10t50 22t52 22q28 10 65 10v0zM768 480q0 13 -9 22q-10 10 -23 10q-21 0 -39 -5q-18 -4 -35 -11t-33 -16q-16 -8 -34 -15t-38 -12t-45 -5
q-24 0 -45 5q-20 4 -38 11q-17 7 -34 16q-16 8 -33 15q-16 7 -34 12t-40 5q-13 0 -22 -9q-10 -10 -10 -23v-32q0 -53 20 -99q20 -47 55 -82q35 -34 81 -55q47 -20 100 -20t99 20q47 20 82 55q34 35 55 81q20 47 20 100v32v0z" />
    <glyph glyph-name="uniE11E" unicode="&#xe11e;" 
d="M0 557l210 211h238v-640h-448v429v0zM192 658l-82 -82h82v82v0zM384 192v512h-128v-192h-192v-320h320v0zM813 768l211 -210v-430h-448v640h237v0zM832 659v-83h82zM640 192h320v320h-192v192h-128v-512v0z" />
    <glyph glyph-name="uniE11F" unicode="&#xe11f;" 
d="M0 896h1024v-576h-64v512h-896v-576h128v-146l146 146h238v-64h-210l-238 -237v237h-128v704v0zM830 338l-80 -82h274v-64h-274l80 -81l-44 -45l-159 158l158 158z" />
    <glyph glyph-name="uniE120" unicode="&#xe120;" 
d="M0 768h1024v-512l-64 64v348l-448 -224l-448 224v-476h512v-64h-576v640v0zM512 516l376 188h-752zM817 274l45 44l159 -158l-158 -158l-45 44l81 82h-259v64h259z" />
    <glyph glyph-name="uniE122" unicode="&#xe122;" 
d="M5 141l113 339l-112 338l1015 -338zM175 512h548l-616 205zM107 243l616 205h-548z" />
    <glyph glyph-name="uniE123" unicode="&#xe123;" 
d="M831 192h193v-64h-192v-192h-64v191h-576v577h-192v63h191v193h65v-192h530l183 182l45 -44l-182 -183v-531h-1zM723 704h-467v-466zM301 192h467v466z" />
    <glyph glyph-name="uniE124" unicode="&#xe124;" 
d="M512 704q26 0 50 -10q23 -10 40 -27q18 -18 28 -41t10 -50q0 -26 -10 -50q-10 -23 -27 -40q-18 -18 -41 -28t-50 -10q-26 0 -50 10q-23 10 -40 27q-18 18 -28 41t-10 50q0 26 10 50q10 23 27 40q18 18 41 28t50 10v0zM512 512q13 0 25 5q11 5 20 14q9 8 14 20q5 11 5 25
q0 13 -5 25q-5 11 -14 20q-8 9 -20 14q-11 5 -25 5q-13 0 -25 -5q-11 -5 -20 -14q-9 -8 -14 -20q-5 -11 -5 -25q0 -13 5 -25q5 -11 14 -20q8 -9 20 -14q11 -5 25 -5v0zM832 568q42 -11 78 -35q35 -23 60 -56q26 -33 40 -73t14 -84q0 -53 -20 -100q-20 -46 -55 -81
q-34 -35 -81 -55t-100 -20v64q39 0 74 15t62 41q26 26 41 61t15 75q0 30 -9 59q-9 28 -26 52q-17 23 -41 42q-23 18 -52 28v-181h-640v181q-28 -9 -52 -28q-24 -18 -41 -42q-16 -23 -26 -52q-9 -28 -9 -58q0 -40 15 -75t41 -61t61 -41t75 -15h146l-80 81l44 45l159 -158
l-158 -159l-45 45l80 81h-146q-53 0 -100 20q-46 20 -81 55t-55 82q-20 46 -20 99q0 44 14 84t39 73q26 33 61 57t78 34v264h146l64 64h219l64 -64h147v-264v0zM768 768h-109l-64 64h-165l-64 -64h-110v-384h512v384v0z" />
    <glyph glyph-name="uniE125" unicode="&#xe125;" 
d="M818 613q32 -16 59 -40q26 -24 44 -54q19 -30 29 -64t10 -71h-64q0 39 -15 74t-41 61t-61 42q-35 15 -75 15q-39 0 -74 -15t-61 -41t-42 -61q-15 -35 -15 -75q0 -45 -21 -86q-20 -41 -57 -68q32 -17 59 -41q26 -24 44 -54q19 -30 29 -64t10 -71h-64q0 39 -15 74t-41 61
t-61 42q-35 15 -75 15q-39 0 -74 -15t-61 -41t-42 -61q-15 -35 -15 -75h-64q0 36 10 71q10 34 28 64q19 29 45 54q26 24 59 40q-36 27 -57 68t-21 87q0 39 15 74t41 61t61 42q35 15 75 15q45 0 86 -21q41 -20 68 -57q19 37 49 67q29 29 67 48q-36 27 -57 68t-21 87
q0 39 15 74t41 61t61 42q35 15 75 15q39 0 74 -15t61 -41t42 -61q15 -35 15 -75q0 -45 -21 -86q-20 -41 -57 -68v-1zM320 256q26 0 49 10q24 10 41 28q17 17 28 40q10 23 10 50q0 26 -10 49q-10 24 -28 41q-17 17 -40 28q-24 10 -50 10t-50 -10q-23 -10 -40 -28
q-17 -17 -28 -40q-10 -24 -10 -50t10 -50q10 -23 28 -40q17 -17 40 -28q23 -10 50 -10v0zM576 768q0 -26 10 -50q10 -23 28 -40q17 -17 40 -28q23 -10 50 -10q26 0 49 10q24 10 41 28q17 17 28 40q10 23 10 50q0 26 -10 49q-10 24 -28 41q-17 17 -40 28q-24 10 -50 10
t-50 -10q-23 -10 -40 -28q-17 -17 -28 -40q-10 -24 -10 -50v0z" />
    <glyph glyph-name="uniE126" unicode="&#xe126;" 
d="M0 768h1024v-576h-1024v576v0zM64 704v-448h640v448h-640v0zM960 256v448h-192v-448h192v0zM495 638l158 -158l-158 -158l-45 44l80 82h-210v64h210l-80 81z" />
    <glyph glyph-name="uniE127" unicode="&#xe127;" 
d="M0 768h1024v-576h-1024v576v0zM64 704v-448h640v448h-640v0zM960 256v448h-192v-448h192v0zM640 512v-64h-210l80 -81l-44 -45l-159 158l158 158l45 -44l-80 -82h210v0z" />
    <glyph glyph-name="uniE128" unicode="&#xe128;" 
d="M248 518q6 0 14 -2t17 -5l16 -6q7 -4 14 -6q-4 -1 -8 -1q-4 -1 -8 -1q-9 0 -16 3q-7 2 -13 6l-12 6t-11 3t-9 -2l-8 -4q0 1 -3 1q3 4 12 6q10 2 15 2v0zM315 496q21 0 38 -7l-14 -4t-14 -2q-10 0 -18 2q2 4 4 5q3 1 4 6v0zM512 960q70 0 136 -18q65 -19 122 -52
q56 -33 103 -80t81 -104q33 -57 51 -122q19 -65 19 -136q0 -70 -18 -136q-19 -65 -52 -122q-33 -56 -80 -103t-104 -81q-57 -33 -122 -51q-65 -19 -136 -19q-70 0 -136 18q-65 19 -122 52q-56 33 -103 80t-81 104q-33 57 -51 122q-19 65 -19 136q0 70 18 136q19 65 52 122
q33 56 80 103t104 81q57 33 122 51q65 19 136 19v0zM893 683l-14 21l-14 20q-1 -4 -3 -6t-2 -9q0 -5 4 -9q3 -4 9 -8l10 -6q6 -2 10 -3v0zM859 731q0 -3 -2 -5h3h3zM512 0q57 0 111 14q55 15 104 42q48 26 90 65q41 38 72 85l-12 31q-6 15 -6 32q0 18 1 29q2 11 3 19
q2 8 3 15q0 7 -2 15q-2 9 -9 21q-6 12 -18 31q0 3 2 9q1 6 1 13q1 6 1 12t-2 9q-13 2 -28 6q-14 4 -24 12l2 2q-6 -1 -12 -4q-7 -2 -13 -5q-6 -2 -13 -4q-6 -2 -13 -2l-8 1l1 3q-7 -1 -15 -4t-15 -3q-5 0 -15 3q-9 3 -19 8t-17 11t-7 12v1q-2 3 -6 6q-4 2 -8 5q-3 2 -6 5
q-2 3 -2 7l5 5l-11 1l-4 15q0 -2 4 -2q4 1 5 2l-17 10l12 32q-7 26 -3 40q3 14 13 23q9 9 22 18t24 24l-1 6l33 40l7 1q14 0 32 2q17 1 35 3t36 5q17 3 32 6q-16 19 -34 36q-17 17 -37 33q-5 -2 -14 -6q-8 -3 -15 -9q-8 -5 -13 -11q-5 -7 -5 -14l2 -9q-8 -15 -19 -19
q-11 -3 -23 -4h-24q-12 1 -24 -4l-8 17l7 29l-8 12l86 27q-5 14 -18 21q-12 7 -27 7v5l28 5q-46 23 -97 35q-50 12 -102 12q-43 0 -86 -8q-42 -9 -82 -25t-76 -40q-37 -23 -68 -54q13 0 20 -7q7 -6 13 -14t12 -15q7 -6 18 -6l8 5l-1 11l16 24l-12 37q2 1 7 5q5 3 8 3
q15 0 24 -1q8 -1 13 -6q6 -4 11 -11l14 -19l18 14q5 -2 16 -7q11 -4 22 -11q11 -6 20 -13q8 -7 8 -13q0 -7 -5 -12q-6 -4 -14 -7q-9 -3 -19 -5t-19 -4q-8 -2 -14 -5t-6 -8l28 -10q-9 -8 -21 -16q-12 -7 -24 -12l2 -9l-46 -18v-14l-3 -1l2 17h-2q-3 0 -4 -1t-1 -3l2 -4v-3
l-6 3v-2q0 -1 2 -4l4 -6t4 -5l2 -2q0 -2 -2 -3q-2 -2 -5 -3q-2 0 -4 -1q-1 0 0 0q7 0 3 -1t-12 -5t-16 -12t-8 -22q0 -8 1 -16q0 -8 -1 -17q-7 19 -21 29t-34 10l-21 -2l10 -7q-8 1 -18 2q-9 1 -18 0q-9 0 -17 -4q-8 -3 -15 -10l-3 -22q0 -16 7 -27q7 -10 24 -10q15 0 30 5
q14 4 28 10q-4 -11 -9 -21q-6 -10 -8 -22l6 -3q12 8 22 3q10 -6 19 -16l20 -22t21 -16l-16 -9l-40 22l1 -4q0 -3 -1 -2l-18 31q-16 0 -34 5t-36 12t-35 17q-17 9 -29 18l-4 -53q0 -61 16 -119q17 -58 47 -109t73 -93t97 -71q-2 10 -1 20q2 11 6 21l6 22q3 10 3 21
q0 16 -4 34q-5 17 -13 35q-7 18 -15 35q-8 18 -14 34q-5 15 -7 29q-2 13 2 23l-7 3q3 7 8 14q5 6 10 13t9 14q3 7 3 15q0 5 -2 11q-2 5 -3 10l10 -2q9 19 24 26q14 7 36 7q2 0 10 -2t17 -5l18 -6v0l11 -3q0 -4 5 -5q4 -1 4 -3l-1 -4q1 -1 7 -4t12 -7l12 -8q5 -4 6 -6
q9 0 25 -6t34 -15t37 -22q18 -12 33 -25q15 -12 25 -25q10 -12 10 -21l-17 -18q2 -26 -4 -40q-5 -13 -17 -22q-11 -8 -26 -15q-15 -6 -32 -17q0 -10 -5 -22q-5 -11 -13 -22q-8 -10 -18 -17t-21 -7l-21 16q1 -1 0 -4q-1 -2 -2 -1q4 -9 2 -21q-2 -13 -8 -26t-14 -25
q-7 -11 -13 -19q26 -7 53 -10q27 -4 55 -4v0z" />
    <glyph glyph-name="uniE12A" unicode="&#xe12a;" 
d="M0 832h1024v-768h-1024v768v0zM960 128v640h-896v-640h896v0zM896 704v-192h-768v192h768v0zM832 576v64h-640v-64h640v0zM640 192v256h256v-256h-256v0zM704 384v-128h128v128h-128v0zM512 448v-64h-384v64h384v0zM512 256v-64h-384v64h384v0z" />
    <glyph glyph-name="uniE12B" unicode="&#xe12b;" 
d="M512 960q70 0 136 -18q65 -18 122 -52q57 -33 104 -80q47 -46 80 -103t52 -123q18 -65 18 -136q0 -70 -18 -136q-18 -65 -52 -122q-33 -57 -80 -104q-46 -47 -103 -80t-123 -52q-65 -18 -136 -18q-70 0 -136 18q-65 18 -122 52q-57 33 -104 80q-47 46 -80 103t-52 123
q-18 65 -18 136q0 70 18 136q18 65 52 122q33 57 80 104q46 47 103 80t123 52q65 18 136 18v0zM916 640q-18 40 -45 76t-60 65q-33 30 -72 53q-38 23 -80 37q17 -24 32 -52q14 -28 26 -58q11 -30 19 -60q8 -31 14 -61h166v0zM960 448q0 66 -18 128h-182q4 -32 6 -64
q2 -31 2 -64q0 -32 -2 -64t-6 -64h181q19 61 19 128v0zM512 0q24 0 46 13q21 14 39 36t32 50q14 27 25 56q11 28 19 55q7 26 11 46h-344q3 -19 11 -46q7 -26 18 -55q11 -28 26 -56q14 -28 32 -50t39 -35q21 -14 46 -14v0zM695 320q4 32 7 64q2 31 2 64q0 32 -2 64t-6 64
h-367q-4 -32 -7 -64q-2 -31 -2 -64q0 -32 2 -64t6 -64h367v0zM64 448q0 -66 18 -128h182q-4 32 -6 64q-2 31 -2 64q0 32 2 64t6 64h-181q-19 -61 -19 -128v0zM512 896q-24 0 -46 -13q-21 -14 -39 -36t-32 -50q-14 -27 -25 -56q-11 -28 -19 -55q-7 -26 -11 -46h344
q-3 19 -11 46q-7 26 -18 55q-11 28 -26 56q-14 28 -32 50t-39 35q-21 14 -46 14v0zM366 872q-42 -15 -81 -38q-38 -23 -71 -52q-33 -30 -60 -66q-27 -35 -46 -76h166q6 30 14 60q8 31 19 61q11 29 26 57q14 28 32 53zM108 256q18 -40 45 -76t60 -65q33 -30 72 -53
q38 -23 80 -37q-17 24 -32 52q-14 28 -26 58q-11 30 -19 60q-8 31 -14 61h-166v0zM658 25q42 14 81 37q38 23 71 52q33 30 60 66q27 35 46 76h-166q-6 -30 -14 -60q-8 -31 -19 -61q-11 -29 -26 -57q-14 -28 -32 -53h-1z" />
    <glyph glyph-name="uniE12C" unicode="&#xe12c;" 
d="M320 832v-64h-64v64h64v0zM704 768v64h64v-64h-64v0zM320 704v-64h-64v64h64v0zM704 640v64h64v-64h-64v0zM256 64v64h64v-64h-64v0zM704 64v64h64v-64h-64v0zM256 192v64h64v-64h-64v0zM704 192v64h64v-64h-64v0zM0 320v256h64v-256h-64v0zM128 320v256h64v-256h-64v0z
M832 320v256h64v-256h-64v0zM960 576h64v-256h-64v256v0zM256 320v256h512v-256h-512v0zM320 512v-128h384v128h-384v0z" />
    <glyph glyph-name="uniE12D" unicode="&#xe12d;" 
d="M1024 191h-456q-11 -41 -35 -77q-24 -35 -57 -60q-32 -26 -72 -40t-84 -14q-53 0 -100 20q-46 20 -81 55q-35 34 -55 81t-20 100v192h-64v384h192v-384h-64v-192q0 -39 15 -74t41 -61t61 -42q35 -15 75 -15q30 0 59 9q28 9 52 26q23 17 41 40q18 24 29 52h-245v640h146
l64 64h346l64 -63h148v-640v-1zM128 512v128h-64v-128h64v0zM64 768v-64h64v64h-64v0zM960 768h-110l-64 63h-293l-64 -63h-109v-512h192v0h64v0h384v511v1zM640 704q39 0 74 -16q35 -15 61 -41t42 -61q15 -35 15 -74q0 -40 -15 -75t-41 -61t-61 -41t-75 -15q-39 0 -74 15
t-61 41t-42 61q-15 35 -15 74q0 40 15 75t41 61t61 41t75 15v1zM640 384q26 0 49 10q24 10 41 27t28 41q10 23 10 49t-10 50q-10 23 -28 41q-17 17 -40 27q-24 10 -50 10t-50 -10q-23 -10 -40 -27t-28 -41q-10 -23 -10 -49q0 -27 10 -50t28 -41q17 -17 40 -27t50 -10v0z
M416 703q13 0 22 -9t9 -22t-9 -22t-22 -9t-22 9t-9 22t9 22t22 9v0z" />
    <glyph glyph-name="uniE12E" unicode="&#xe12e;" 
d="M1014 -9q10 -10 10 -23t-9 -22q-10 -10 -23 -10t-22 9l-393 392q-48 -39 -105 -60t-120 -21q-48 0 -93 12q-45 13 -84 36t-72 55q-32 32 -55 71t-35 84q-13 45 -13 94q0 48 12 93q13 45 36 84t55 72q32 32 71 55t84 35q45 13 94 13q48 0 93 -12q45 -13 84 -36t72 -55
q32 -32 55 -71t35 -84q13 -45 13 -94q0 -62 -21 -120q-21 -57 -60 -105zM352 320q59 0 112 23q52 22 91 61t62 92q23 52 23 112q0 59 -23 112q-22 52 -61 91t-92 62q-52 23 -112 23q-59 0 -112 -23q-52 -22 -91 -61t-62 -92q-23 -52 -23 -112q0 -59 23 -112q22 -52 61 -91
t92 -62q52 -23 112 -23v0zM384 640h128v-64h-128v-128h-64v128h-128v64h128v128h64v-128v0z" />
    <glyph glyph-name="uniE12F" unicode="&#xe12f;" 
d="M0 704v64h64v-64h-64v0zM192 768h832v-64h-832v64v0zM0 128v64h64v-64h-64v0zM192 128v64h832v-64h-832v0zM448 512v64h576v-64h-576v0zM704 320v64h320v-64h-320v0z" />
    <glyph glyph-name="uniE130" unicode="&#xe130;" 
d="M274 960h622v-877l-146 -147h-622v877zM832 110v786h-530l-110 -109v-787h530z" />
    <glyph glyph-name="uniE131" unicode="&#xe131;" 
d="M960 320v-384h-448v384h64q0 38 9 73q8 34 28 61q19 26 49 42t74 16q43 0 74 -16q30 -15 49 -42q19 -26 28 -61t9 -73h64v0zM640 320h192v32q0 20 -7 37q-8 18 -21 31t-30 20q-18 8 -38 8t-37 -7q-18 -8 -31 -21t-20 -30q-8 -18 -8 -38v-32v0zM896 256h-320v-256h320v256
v0zM192 0h256v-64h-320v877l146 147h622v-430q-14 13 -30 23q-16 11 -34 19v324h-530l-110 -109v-787v0z" />
    <glyph glyph-name="uniE132" unicode="&#xe132;" 
d="M576 941l301 -301h-301v301v0zM512 960v-384h384v-640h-768v1024h384v0z" />
    <glyph glyph-name="uniE133" unicode="&#xe133;" 
d="M384 768h640v-64h-640v64v0zM384 512v64h640v-64h-640v0zM384 320v64h640v-64h-640v0zM384 128v64h640v-64h-640v0zM96 322l143 143l34 -34l-177 -177l-89 89l34 34zM96 706l143 143l34 -34l-177 -177l-89 89l34 34z" />
    <glyph glyph-name="uniE134" unicode="&#xe134;" 
d="M1024 896v-704h-658l-238 -237v237h-128v704h1024v0zM960 832h-896v-576h128v-146l146 146h622v576v0zM640 512h-64v128h128v-128q0 -13 -5 -25q-5 -11 -14 -20q-8 -9 -20 -14q-11 -5 -25 -5v64v0zM384 512h-64v128h128v-128q0 -13 -5 -25q-5 -11 -14 -20q-8 -9 -20 -14
q-11 -5 -25 -5v64v0z" />
    <glyph glyph-name="uniE135" unicode="&#xe135;" 
d="M32 736h960v-576h-960v576v0z" />
    <glyph glyph-name="uniE136" unicode="&#xe136;" 
d="M370 421q32 -16 59 -40q26 -24 44 -54q19 -30 29 -64t10 -71h-64q0 39 -15 74t-41 61t-61 42q-35 15 -75 15q-39 0 -74 -15t-61 -41t-42 -61q-15 -35 -15 -75h-64q0 36 10 71q10 34 28 64q19 29 45 54q26 24 59 40q-36 27 -57 68t-21 87q0 39 15 74t41 61t61 42
q35 15 75 15q39 0 74 -15t61 -41t42 -61q15 -35 15 -75q0 -45 -21 -86q-20 -41 -57 -68v-1zM128 576q0 -26 10 -50q10 -23 28 -40q17 -17 40 -28q23 -10 50 -10q26 0 49 10q24 10 41 28q17 17 28 40q10 23 10 50q0 26 -10 49q-10 24 -28 41q-17 17 -40 28q-24 10 -50 10
t-50 -10q-23 -10 -40 -28q-17 -17 -28 -40q-10 -24 -10 -50v0zM1024 768v-64h-448v64h448v0zM576 512h448v-64h-448v64v0zM576 256h448v-64h-448v64v0z" />
    <glyph glyph-name="uniE137" unicode="&#xe137;" 
d="M480 832q31 0 68 -3q37 -4 77 -12q39 -7 80 -20q40 -12 77 -29t70 -39q32 -22 56 -50q24 -27 38 -61t14 -74v-64q0 -20 -7 -37q-8 -18 -21 -31t-30 -20q-18 -8 -38 -8h-128q-28 0 -45 8q-18 8 -28 22q-10 13 -14 31q-4 17 -6 35t-3 35q0 17 -3 31q-3 13 -9 22q-7 8 -20 8
h-256q-13 0 -19 -8q-7 -8 -10 -22q-2 -13 -3 -31q-1 -17 -3 -35q-1 -18 -6 -35q-4 -17 -14 -31q-10 -13 -27 -22q-18 -8 -46 -8h-128q-20 0 -37 7q-18 8 -31 21t-20 30q-8 18 -8 38v64q0 40 14 74q13 33 38 61q24 28 56 50t70 39q37 17 77 29t80 20q39 8 77 11q37 4 68 4v0z
M896 544q0 42 -22 75q-22 32 -58 57q-35 25 -80 43q-45 17 -92 28q-46 11 -89 16t-75 5q-31 0 -75 -5q-43 -5 -89 -16t-91 -28t-81 -42t-58 -58t-22 -75v-64q0 -13 9 -22q10 -10 23 -10h128q16 0 24 11q7 11 9 27q1 15 0 31t-1 27q0 20 7 37q8 18 21 31t30 20q18 8 38 8h256
q20 0 37 -7q18 -8 31 -21t20 -30q8 -18 8 -38q0 -10 -1 -27q-1 -16 0 -31q2 -15 9 -27q7 -11 24 -11h128q13 0 22 9q10 10 10 23v64v0zM618 215l44 -45l-182 -183l-182 182l44 45l106 -104v338h64v-338z" />
    <glyph glyph-name="uniE139" unicode="&#xe139;" 
d="M768 672q0 -55 -19 -104q-20 -49 -54 -88q-35 -38 -82 -63t-101 -31v-15v-37v-302q0 -6 -4 -19l-9 -28t-11 -28q-5 -14 -8 -21q-3 7 -8 20q-6 14 -11 29q-5 14 -9 27t-4 20v352v2q-54 6 -101 31q-47 24 -81 63q-35 38 -54 88q-20 49 -20 104q0 59 23 112q22 52 61 91
t92 62q52 23 112 23q59 0 112 -23q52 -22 91 -61t62 -92q23 -52 23 -112v0zM480 448q46 0 87 18q41 17 71 48q30 30 48 71q18 40 18 87q0 46 -18 87q-17 41 -48 71q-30 30 -71 48q-40 18 -87 18q-46 0 -87 -18q-41 -17 -71 -48q-30 -30 -48 -71q-18 -40 -18 -87
q0 -46 18 -87q17 -41 48 -71q30 -30 71 -48q40 -18 87 -18v0zM480 544q-26 0 -50 10q-23 10 -40 28q-17 17 -28 40q-10 23 -10 50q0 26 10 49q10 24 28 41q17 17 40 28q23 10 50 10q26 0 49 -10q24 -10 41 -28q17 -17 28 -40q10 -24 10 -50t-10 -50q-10 -23 -28 -40
q-17 -17 -40 -28q-24 -10 -50 -10v0zM480 736q-13 0 -25 -5q-11 -5 -20 -14q-9 -8 -14 -20q-5 -11 -5 -25q0 -13 5 -25q5 -11 14 -20q8 -9 20 -14q11 -5 25 -5q13 0 25 5q11 5 20 14q9 8 14 20q5 11 5 25q0 13 -5 25q-5 11 -14 20q-8 9 -20 14q-11 5 -25 5v0z" />
    <glyph glyph-name="uniE13A" unicode="&#xe13a;" 
d="M803 353q22 0 43 -8q20 -8 35 -23l110 -110q16 -16 24 -36t8 -42t-8 -43q-8 -20 -23 -35l-52 -52q-24 -22 -49 -37t-55 -23q-31 -8 -74 -8q-62 0 -128 19q-66 20 -132 54q-65 35 -128 82q-62 48 -118 104t-103 119t-81 128t-53 130t-19 126q0 43 8 74q7 30 23 55
q15 25 37 49l51 51q16 16 36 24q20 9 42 9t43 -8q20 -9 35 -24l110 -110q16 -16 24 -36t8 -42t-7 -40q-7 -17 -18 -31t-25 -25l-24 -23t-18 -22q-8 -11 -8 -24q0 -19 13 -33l276 -275q13 -14 32 -14q13 0 25 7q11 8 22 19t22 24q12 13 26 24t31 19q17 7 39 7v0zM762 0
q36 0 60 7q24 6 44 19q19 13 38 32l42 43q14 13 14 32q0 9 -7 22q-7 12 -19 25q-11 14 -26 28l-28 27l-25 24q-12 10 -18 17q-14 13 -33 13q-13 0 -24 -7t-22 -18t-23 -25q-12 -13 -26 -24t-31 -18q-17 -8 -39 -8t-43 8q-20 8 -35 24l-276 275q-15 16 -24 36q-8 20 -8 42
t7 40q8 17 19 31t24 26q13 11 24 22t19 22q7 11 7 24q0 20 -13 33l-17 19l-24 25q-12 14 -27 28l-27 26q-14 11 -26 19q-12 7 -21 7q-19 0 -33 -13l-43 -43q-18 -18 -32 -38q-13 -19 -20 -44q-6 -24 -6 -59q0 -56 18 -116q18 -59 50 -119q32 -59 76 -117t96 -109
q52 -52 110 -95q58 -44 117 -76q59 -31 118 -49t113 -18v0z" />
    <glyph glyph-name="uniE13B" unicode="&#xe13b;" 
d="M640 444v-60h-384v320h384v-60l128 64v-328zM704 604l-64 -32v-56l64 -32v120v0zM576 448v192h-256v-192h256v0zM0 896h1024v-704h-658l-238 -237v237h-128v704v0zM960 256v576h-896v-576h128v-146l146 146h622v0z" />
    <glyph glyph-name="uniE13C" unicode="&#xe13c;" 
d="M1024 256v-64h-899l81 -81l-44 -45l-159 158l158 158l45 -44l-81 -82h899v0zM818 558l81 82h-899v64h899l-81 81l44 45l159 -158l-158 -158z" />
    <glyph glyph-name="uniE13D" unicode="&#xe13d;" 
d="M665 358q68 -23 123 -65q54 -42 93 -98q38 -55 58 -121q21 -66 21 -138h-64q0 82 -29 152t-81 122q-51 51 -122 81q-70 29 -152 29q-53 0 -103 -13q-49 -14 -92 -39q-43 -24 -78 -59q-34 -35 -59 -78q-25 -42 -38 -92q-14 -49 -14 -103h-64q0 72 21 138q21 65 59 120
q39 55 94 97q54 42 122 67q-39 21 -70 51t-53 67q-21 36 -33 78t-12 86q0 66 25 125q25 58 68 101q44 44 102 69t125 25q66 0 125 -25q58 -25 101 -68q44 -44 69 -102t25 -125q0 -44 -12 -85q-11 -42 -33 -78q-22 -37 -53 -67q-30 -30 -69 -51v-1zM256 640q0 -53 20 -99
q20 -47 55 -82q35 -34 81 -55q47 -20 100 -20t99 20q47 20 82 55q34 35 55 81q20 47 20 100t-20 99q-20 47 -55 82q-35 34 -81 55q-47 20 -100 20t-99 -20q-47 -20 -82 -55q-34 -35 -55 -81q-20 -47 -20 -100v0z" />
    <glyph glyph-name="uniE13E" unicode="&#xe13e;" 
d="M127 385v127h385v-126h-384zM640 256h-640v384h640v-64h-575v-255h575v-65v0zM1024 640v-384h-192v64h127v255h-127v65h192v0zM769 177q55 -48 127 -48v0v-65v0q-88 0 -159 54q-35 -26 -76 -40q-40 -14 -85 -14v0v64v0q72 0 127 47v548q-25 22 -58 33q-32 11 -69 11v0v65
v0q45 0 86 -13t75 -39q69 52 159 52v0v-64v0q-74 0 -127 -46v-545v0z" />
    <glyph glyph-name="uniE13F" unicode="&#xe13f;" 
d="M1024 512v-64h-410l148 -149l-36 -37l-219 218l218 218l37 -36l-148 -150h410v0zM0 256v448h448v-448h-448v0zM64 640v-320h320v320h-320v0z" />
    <glyph glyph-name="uniE140" unicode="&#xe140;" 
d="M0 832h960v-704h-960v704v0zM896 192v576h-384v-64h-64v64h-384v-576h384v64h64v-64h384v0zM576 447v64h158l-47 48l34 34l113 -114l-113 -112l-34 34l46 46h-157v0zM448 512v128h64v-128h-64v0zM448 320v128h64v-128h-64v0z" />
    <glyph glyph-name="uniE141" unicode="&#xe141;" 
d="M1024 704v-448h-32q-39 0 -71 17q-33 16 -56 47h-247q-14 -29 -35 -53t-48 -40q-26 -17 -56 -26t-63 -9h-32v256h-320l-64 32l64 32h320v256h32q32 0 63 -9q30 -9 56 -25q26 -17 47 -41q21 -23 35 -53h247q24 30 56 47q33 17 72 17h32v0zM960 635q-12 -4 -20 -10
q-9 -6 -16 -14q-6 -7 -12 -16t-12 -19h-326l-8 21q-14 40 -45 67q-32 28 -73 36v-440q41 8 72 35q32 28 46 67l7 22h327q6 -10 12 -19q5 -9 12 -16t15 -13q9 -6 21 -10v308v1z" />
    <glyph glyph-name="uniE142" unicode="&#xe142;" 
d="M1024 768v-64h-1024v64h1024v0zM0 576h1024v-64h-1024v64v0zM640 128h-640v64h640v-64v0zM704 337l320 80v-353q0 -15 -7 -27t-19 -20t-26 -13q-14 -4 -28 -4q-13 0 -28 4q-14 4 -26 13q-11 8 -19 20q-7 11 -7 27q0 15 7 27t19 20t26 13q14 4 28 4q7 0 16 -1v208
l-192 -48v-287q0 -16 -8 -28t-20 -20t-27 -12t-29 -4q-13 0 -28 4t-28 12q-12 8 -20 20t-8 28t8 28t20 20t27 12t29 4h10l10 -2v275v0zM640 320h-640v64h640v-64v0z" />
    <glyph glyph-name="uniE143" unicode="&#xe143;" 
d="M512 960h512v-512h-64v402l-913 -912l-45 44l912 914h-402v64v0z" />
    <glyph glyph-name="uniE145" unicode="&#xe145;" 
d="M0 768h1024v-576h-1024v576v0zM64 704v-448h192v448h-192v0zM960 256v448h-640v-448h640v0z" />
    <glyph glyph-name="uniE146" unicode="&#xe146;" 
d="M0 768h1024v-576h-1024v576v0zM64 704v-448h640v448h-640v0zM960 256v448h-192v-448h192v0z" />
    <glyph glyph-name="uniE147" unicode="&#xe147;" 
d="M0 768h1024v-576h-1024v576v0zM960 704h-896v-320h896v320v0zM64 256h896v64h-896v-64v0z" />
    <glyph glyph-name="uniE148" unicode="&#xe148;" 
d="M129 593l45 45l351 -350l-350 -350l-45 44l305 306zM894 913l-305 -305l305 -305l-44 -45l-351 350l350 350z" />
    <glyph glyph-name="uniE149" unicode="&#xe149;" 
d="M648 941q83 -22 152 -70t119 -113t77 -145q28 -79 28 -165q0 -70 -18 -136q-18 -65 -52 -122q-33 -57 -80 -104q-46 -47 -103 -80t-123 -52q-65 -18 -136 -18q-70 0 -136 18q-65 18 -122 52q-57 33 -104 80q-47 46 -80 103t-52 123q-18 65 -18 136q0 70 18 136
q19 66 53 124t83 106t111 82h-137v64h256v-256h-64v148q-58 -27 -106 -70q-47 -42 -80 -95q-34 -52 -52 -113t-18 -126q0 -61 16 -119q16 -57 45 -107q29 -49 70 -90t91 -71q50 -29 107 -45t119 -16q61 0 119 16q57 16 107 45q49 29 90 70t71 91q29 50 45 107t16 119
q0 75 -24 144q-24 70 -68 127q-43 57 -104 99q-60 41 -132 61l16 62v0z" />
    <glyph glyph-name="uniE14A" unicode="&#xe14a;" 
d="M512 576q26 0 50 -10q23 -10 40 -27q18 -18 28 -41t10 -50q0 -26 -10 -50q-10 -23 -27 -40q-18 -18 -41 -28t-50 -10q-26 0 -50 10q-23 10 -40 27q-18 18 -28 41t-10 50q0 26 10 50q10 23 27 40q18 18 41 28t50 10v0zM512 384q13 0 25 5q11 5 20 14q9 8 14 20q5 11 5 25
q0 13 -5 25q-5 11 -14 20q-8 9 -20 14q-11 5 -25 5q-13 0 -25 -5q-11 -5 -20 -14q-9 -8 -14 -20q-5 -11 -5 -25q0 -13 5 -25q5 -11 14 -20q8 -9 20 -14q11 -5 25 -5v0zM1024 448q0 -70 -18 -136q-19 -66 -53 -124t-83 -106t-111 -82h137v-64h-256v256h64v-148q58 27 106 69
q47 43 80 96q34 52 52 113t18 126q0 61 -16 119q-16 57 -45 107q-29 49 -70 90t-91 71q-50 29 -107 45t-119 16q-61 0 -119 -16q-57 -16 -107 -45q-49 -29 -90 -70t-71 -91q-29 -50 -45 -107t-16 -119q0 -75 24 -144q24 -70 68 -127q43 -57 104 -99q60 -41 132 -61l-16 -62
q-83 22 -152 70t-119 113t-77 145q-28 79 -28 165q0 70 18 136q18 65 52 122q33 57 80 104q46 47 103 80t123 52q65 18 136 18q70 0 136 -18q65 -18 122 -52q57 -33 104 -80q47 -46 80 -103t52 -123q18 -65 18 -136v0z" />
    <glyph glyph-name="uniE14B" unicode="&#xe14b;" 
d="M882 640q-63 -2 -120 -18q-56 -15 -107 -43t-96 -66q-46 -39 -86 -85q-17 -20 -34 -38q-17 -19 -36 -36q-84 -77 -186 -119q-102 -43 -217 -43v64q65 0 124 15t111 43q53 28 100 67q46 39 88 87q18 21 36 40q17 19 37 37q41 36 86 65q44 29 93 49q49 21 101 32t107 13
l-73 73l44 45l151 -150l-150 -150l-45 44zM403 542l-22 -24l-21 -24q-37 33 -79 61q-42 27 -87 46q-46 19 -94 29q-49 10 -100 10v64q114 0 216 -43q102 -42 186 -119h1zM854 375l151 -151l-150 -150l-45 44l73 74q-55 1 -108 13q-52 11 -101 32t-95 50q-45 30 -85 67l21 24
l21 24q36 -32 76 -59q40 -26 84 -45t91 -30q46 -10 95 -12l-72 73z" />
    <glyph glyph-name="uniE14C" unicode="&#xe14c;" 
d="M0 320v64h64v-64h-64v0zM0 512v64h64v-64h-64v0zM192 512v64h832v-64h-832v0zM0 704v64h64v-64h-64v0zM192 768h832v-64h-832v64v0zM192 320v64h832v-64h-832v0zM0 128v64h64v-64h-64v0zM192 128v64h832v-64h-832v0z" />
    <glyph glyph-name="uniE14D" unicode="&#xe14d;" 
d="M896 704v-640q0 -26 -10 -50q-10 -23 -28 -40q-17 -17 -40 -28q-24 -10 -50 -10h-576q-26 0 -50 10q-23 10 -40 28q-17 17 -28 40q-10 23 -10 50v640h128v64q0 39 15 74t41 61t61 42q35 15 75 15q52 0 96 -26q45 26 96 26q39 0 74 -15t61 -41t42 -61q15 -35 15 -75v-64
h128v0zM704 768q0 26 -10 49q-10 24 -28 41q-17 17 -40 28q-24 10 -50 10q-22 0 -42 -7q17 -23 26 -44q9 -22 13 -44q3 -22 3 -46v-51h128v64v0zM256 704h256v64q0 26 -10 49q-10 24 -28 41q-17 17 -40 28q-24 10 -50 10t-50 -10q-23 -10 -40 -28q-17 -17 -28 -40
q-10 -24 -10 -50v-64v0zM657 0q-17 30 -17 64v576h-512v-576q0 -13 5 -25q5 -11 14 -20q8 -9 20 -14q11 -5 25 -5h465v0zM832 640h-128v-576q0 -13 5 -25q5 -11 14 -20q8 -9 20 -14q11 -5 25 -5q13 0 25 5q11 5 20 14q9 8 14 20q5 11 5 25v576v0z" />
    <glyph glyph-name="uniE14E" unicode="&#xe14e;" 
d="M0 896v64h64v-64h-64v0zM0 768v64h64v-64h-64v0zM0 640v64h64v-64h-64v0zM0 512v64h64v-64h-64v0zM0 384v64h64v-64h-64v0zM0 256v64h64v-64h-64v0zM0 128v64h64v-64h-64v0zM0 0v64h64v-64h-64v0zM896 768v64h64v-64h-64v0zM896 640v64h64v-64h-64v0zM896 512v64h64v-64
h-64v0zM896 384v64h64v-64h-64v0zM896 256v64h64v-64h-64v0zM896 128v64h64v-64h-64v0zM896 0v64h64v-64h-64v0zM192 960v-64h-64v64h64v0zM320 960v-64h-64v64h64v0zM448 960v-64h-64v64h64v0zM576 960v-64h-64v64h64v0zM704 960v-64h-64v64h64v0zM768 896v64h64v-64h-64v0
zM128 0v64h64v-64h-64v0zM256 0v64h64v-64h-64v0zM384 0v64h64v-64h-64v0zM512 0v64h64v-64h-64v0zM640 0v64h64v-64h-64v0zM768 0v64h64v-64h-64v0zM896 960h64v-64h-64v64v0zM768 768v-576h-576v576h576v0zM704 512v192h-192v-192h192v0zM448 704h-192v-192h192v192v0z
M256 448v-192h192v192h-192v0zM512 256h192v192h-192v-192v0z" />
    <glyph glyph-name="uniE14F" unicode="&#xe14f;" 
d="M704 128h-704v448h704v-448v0zM640 512h-576v-320h576v320v0zM64 640h-64v64h64v-64v0zM64 768h-64v64h64v-64v0zM64 896h-64v64h64v-64v0zM448 896h-64v64h64v-64v0zM192 896h-64v64h64v-64v0zM320 896h-64v64h64v-64v0zM448 768h-64v64h64v-64v0zM448 640h-64v64h64
v-64v0zM813 896q51 -51 91 -99q39 -47 66 -100q26 -52 40 -112q14 -61 14 -137q0 -70 -18 -136q-18 -65 -52 -122q-33 -57 -80 -104q-46 -47 -103 -80t-123 -52q-65 -18 -136 -18v64q61 0 119 16q57 16 107 45q49 29 90 70t71 91q29 50 45 107t16 119q0 66 -13 121
q-12 54 -37 102q-24 47 -60 91q-35 43 -82 88v-146h-64v256h256v-64h-146h-1z" />
    <glyph glyph-name="uniE150" unicode="&#xe150;" 
d="M278 665l-153 -154h771v-64h-770l152 -152l-44 -45l-231 230l230 230zM960 704h64v-448h-64v448v0z" />
    <glyph glyph-name="uniE151" unicode="&#xe151;" 
d="M512 512v-64h-386l144 -145l-44 -45l-223 222l222 222l45 -44l-145 -146h387zM576 704h448v-448h-448v448v0zM960 512v128h-128v-128h128v0zM768 640h-128v-128h128v128v0zM640 448v-128h128v128h-128v0zM832 320h128v128h-128v-128v0z" />
    <glyph glyph-name="uniE152" unicode="&#xe152;" 
d="M448 896h448v-832h-832v448h384v384v0zM448 128v320h-320v-320h320v0zM832 128v320h-320v-320h320v0zM512 512h320v320h-320v-320v0z" />
    <glyph glyph-name="uniE153" unicode="&#xe153;" 
d="M64 896h448v-448h-448v448v0zM448 512v320h-320v-320h320v0z" />
    <glyph glyph-name="uniE155" unicode="&#xe155;" 
d="M128 256v128h-128v576h768v-128h128v-384h-64v320h-64v-384h-576v-64h448v-64h-512v0zM704 448v448h-640v-448h640v0zM128 832h512v-320h-512v320v0zM192 576h384v192h-384v-192v0zM864 384q33 0 62 -13q29 -12 51 -34q21 -22 34 -51t13 -62t-13 -62q-12 -29 -34 -51
q-22 -21 -51 -34t-62 -13q-23 0 -46 7q-22 6 -42 19l-152 -151l-45 45l151 152q-12 19 -19 42q-7 22 -7 46q0 33 13 62q12 29 34 51q22 21 51 34t62 13v0zM864 128q20 0 37 7q18 8 31 21t20 30q8 18 8 38t-7 37q-8 18 -21 31t-30 20q-18 8 -38 8t-37 -7q-18 -8 -31 -21
t-20 -30q-8 -18 -8 -38t7 -37q8 -18 21 -31t30 -20q18 -8 38 -8v0z" />
    <glyph glyph-name="uniE156" unicode="&#xe156;" 
d="M626 422q34 -16 60 -40t45 -54q18 -30 27 -65q10 -34 10 -71h-64q0 41 -15 76q-14 35 -40 61q-26 25 -61 40t-76 15q-40 0 -75 -15t-61 -41q-26 -25 -41 -60t-15 -76h-64q0 36 10 71q9 34 28 64q18 30 45 54q26 24 59 40q-36 27 -57 68t-21 87q0 39 15 74t41 61t61 42
q35 15 75 15q39 0 74 -15t61 -41t42 -61q15 -35 15 -75q0 -45 -20 -86q-21 -41 -57 -68h-1zM384 576q0 -26 10 -50q10 -23 28 -40q17 -17 40 -28q23 -10 50 -10q26 0 49 10q24 10 41 28q17 17 28 40q10 23 10 50q0 26 -10 49q-10 24 -28 41q-17 17 -40 28q-24 10 -50 10
t-50 -10q-23 -10 -40 -28q-17 -17 -28 -40q-10 -24 -10 -50v0zM64 0h192v-64h-256v256h64v-192v0zM960 192h64v-256h-256v64h192v192v0zM1024 960v-256h-64v192h-192v64h256v0zM64 704h-64v256h256v-64h-192v-192v0z" />
    <glyph glyph-name="uniE158" unicode="&#xe158;" 
d="M896 704h128v-640h-896v128h-128v640h896v-128v0zM64 768v-512h768v512h-768v0zM960 128v512h-64v-448h-704v-64h768v0zM128 320v384h640v-384h-640v0zM192 640v-256h512v256h-512v0z" />
    <glyph glyph-name="uniE159" unicode="&#xe159;" 
d="M768 960q13 0 25 -5q11 -5 20 -14q9 -8 14 -20q5 -11 5 -25v-576h-557l-83 82v494q0 13 5 25q5 11 14 20q8 9 20 14q11 5 25 5h512v0zM384 704h256v192h-256v-192v0zM640 512h-256v-128h64v64h64v-64h128v128v0zM768 896h-64v-256h-384v256h-64v-466l45 -46h19v192h384
v-192h64v512v0zM650 151l44 -45l-150 -151l-150 150l44 45l74 -73v179h64v-179z" />
    <glyph glyph-name="uniE15A" unicode="&#xe15a;" 
d="M0 832h1024v-768h-1024v768v0zM960 128v640h-896v-640h896v0zM896 704v-512h-768v512h768v0zM832 256v384h-640v-384h640v0zM0 -64v64h640v-64h-640v0z" />
    <glyph glyph-name="uniE15B" unicode="&#xe15b;" 
d="M64 896h896v-896h-896v896v0zM896 64v768h-768v-768h768v0z" />
    <glyph glyph-name="uniE15C" unicode="&#xe15c;" 
d="M192 64v64h832v-64h-832v0zM0 768v64h64v-64h-64v0zM0 256v64h64v-64h-64v0zM192 256v64h832v-64h-832v0zM192 832h832v-64h-832v64v0zM192 576v64h832v-64h-832v0z" />
    <glyph glyph-name="uniE15D" unicode="&#xe15d;" 
d="M836 900q45 -44 80 -97q35 -52 59 -110t36 -120q12 -61 12 -125q0 -63 -12 -125t-36 -120q-24 -57 -59 -110q-34 -52 -79 -97l-45 44q40 41 71 88t53 99q21 52 33 108q11 56 11 113t-11 113q-11 55 -33 107q-21 52 -53 100q-31 47 -71 87zM701 765q31 -31 56 -68
q24 -37 41 -77q16 -41 25 -84q9 -44 9 -88t-9 -88q-8 -43 -25 -83q-17 -41 -41 -78q-24 -36 -56 -68l-45 45q53 54 83 125q29 70 29 147q0 76 -29 147q-29 70 -83 124zM565 629q36 -36 55 -83q20 -47 20 -98t-19 -98q-20 -47 -56 -83l-45 45q27 27 41 62q15 35 15 74
q0 38 -14 74q-15 35 -42 62zM339 832h45v-768h-45l-192 192h-147v384h146zM320 722l-146 -146h-110v-256h109l147 -146v548v0z" />
    <glyph glyph-name="uniE15E" unicode="&#xe15e;" 
d="M965 850q13 -22 24 -43q10 -20 18 -41t13 -44q4 -23 4 -50q0 -39 -10 -76t-29 -69t-45 -58q-27 -27 -59 -46q-32 -18 -69 -29q-36 -10 -76 -10q-11 0 -23 1t-23 3l-403 -403q-24 -24 -55 -36q-31 -13 -64 -13q-35 0 -65 13q-31 13 -54 36q-22 23 -36 53q-13 31 -13 65
t12 65q13 30 37 54l403 403q-2 12 -3 24q-1 11 -1 23q0 39 10 76t29 69t45 58q27 27 59 46q32 18 69 29q36 10 76 10q27 0 50 -4q22 -4 43 -12t42 -19l43 -24l-197 -197l51 -51zM736 448q46 0 87 18q41 17 71 48q30 30 48 71q18 40 18 87q0 36 -12 70l-180 -179l-141 141
l179 180q-33 12 -70 12q-46 0 -87 -18q-41 -17 -71 -48q-30 -30 -48 -71q-18 -40 -18 -87q0 -17 3 -34q3 -16 7 -33l-427 -428q-15 -14 -23 -33t-8 -40t8 -40t22 -33t33 -23q19 -8 40 -8t40 8t34 22l428 428q16 -4 33 -7q16 -3 34 -3v0z" />
    <glyph glyph-name="uniE15F" unicode="&#xe15f;" 
d="M0 896h1024v-704h-658l-238 -237v237h-128v704v0zM960 256v576h-896v-576h128v-146l146 146h622v0z" />
    <glyph glyph-name="uniE160" unicode="&#xe160;" 
d="M557 960l339 -338v-686h-768v1024h429v0zM576 851v-211h210zM192 0h640v576h-320v320h-320v-896v0z" />
    <glyph glyph-name="uniE161" unicode="&#xe161;" 
d="M832 896h192v-896h-1024v896h192v64h64v-64h512v64h64v-64v0zM192 832h-128v-128h896v128h-128v-64h-64v64h-512v-64h-64v64v0zM64 64h896v576h-896v-576v0zM192 128v448h256v-448h-256v0zM256 512v-320h128v320h-128v0zM576 128v448h256v-448h-256v0zM640 512v-320h128
v320h-128v0z" />
    <glyph glyph-name="uniE162" unicode="&#xe162;" 
d="M832 896h192v-896h-1024v896h192v64h64v-64h512v64h64v-64v0zM192 832h-128v-128h896v128h-128v-64h-64v64h-512v-64h-64v64v0zM64 64h896v576h-896v-576v0zM384 128v448h64v-448h-64v0zM192 128v448h64v-448h-64v0zM768 128v448h64v-448h-64v0zM576 128v448h64v-448h-64
v0z" />
    <glyph glyph-name="uniE163" unicode="&#xe163;" 
d="M384 512v64h64v-64h-64v0zM576 128v64h64v-64h-64v0zM768 512v64h64v-64h-64v0zM576 512v64h64v-64h-64v0zM384 384v64h64v-64h-64v0zM192 384v64h64v-64h-64v0zM768 384v64h64v-64h-64v0zM576 384v64h64v-64h-64v0zM384 256v64h64v-64h-64v0zM192 256v64h64v-64h-64v0z
M768 256v64h64v-64h-64v0zM576 256v64h64v-64h-64v0zM384 128v64h64v-64h-64v0zM192 128v64h64v-64h-64v0zM832 896h192v-896h-1024v896h192v64h64v-64h512v64h64v-64v0zM192 832h-128v-128h896v128h-128v-64h-64v64h-512v-64h-64v64v0zM64 64h896v576h-896v-576v0z" />
    <glyph glyph-name="uniE164" unicode="&#xe164;" 
d="M325 512l171 -512h-69l-43 128h-192l-42 -128h-70l170 512h75v0zM362 192l-74 224l-74 -224h148v0zM403 688q0 34 1 68q0 34 -1 69q0 2 1 5q4 1 6 1h42q21 -1 42 -1h137v33t-4 33q34 0 68 -3q3 0 7 -1q3 -1 3 -5q0 -3 -1 -6q-2 -3 -3 -6t-2 -8q0 -5 -1 -11v-11v-15h148
h42q20 1 41 1q4 0 7 -1q1 -2 1 -5v-18q-1 -9 -1 -17v-29v-37q1 -18 1 -36v-3t-1 -3q-4 -1 -6 -1q-3 0 -12 -1h-19h-18t-10 2q-1 5 -1 18v26v26v20h-400v-10v-17v-41v0v-16q-1 -15 -2 -7q-4 -1 -6 -1h-51q-6 0 -7 1q-1 2 -1 7v0zM951 559q1 -4 1 -6v-48q0 -2 -1 -6
q-4 -1 -6 -1h-40q-19 1 -39 1h-161v-60l2 -60q0 -13 -4 -25q-4 -13 -15 -20q-7 -5 -20 -8q-12 -3 -27 -4l-28 -2h-22h-9q-7 0 -9 3q-2 1 -4 8l-3 9q-3 13 -8 24t-12 23q17 -2 34 -3h34q12 0 18 3q6 4 6 17v95h-159h-40l-40 -1q-4 0 -6 1q-1 3 -1 5v48v4t1 3q3 1 6 1h40v0
l40 -1h159q0 13 -1 26q0 13 -2 26q10 0 21 -1l21 -2q18 12 34 26l32 28h-154h-42q-20 0 -41 -1q-4 0 -6 1q-1 3 -1 6v47v6q4 1 6 1h42q21 -1 42 -1h186q8 0 15 2t13 2q4 0 11 -5q8 -6 15 -14q8 -8 14 -17q5 -8 5 -12q0 -5 -3 -8q-3 -2 -7 -4q-7 -4 -13 -9l-13 -11l-52 -42
q-26 -20 -55 -38v-6h160h40q19 1 39 1q4 0 7 -1v0z" />
    <glyph glyph-name="uniE165" unicode="&#xe165;" 
d="M1024 768v-541q-14 11 -30 20q-16 8 -34 14v407l-448 -224l-448 224v-476h352v-64h-416v640h1024v0zM512 516l376 188h-752zM557 160l113 -113l-44 -45l-159 158l158 158l45 -44zM749 192q25 0 56 1q30 1 60 0q31 -1 59 -7q29 -6 51 -20t36 -39q13 -24 13 -63
q0 -26 -10 -50q-10 -23 -28 -40q-17 -17 -40 -28q-24 -10 -50 -10v64q13 0 25 5q11 5 20 14q9 8 14 20q5 11 5 25q0 13 -5 25q-5 11 -14 20q-8 9 -20 14q-11 5 -25 5h-146l80 -81l-44 -45l-159 158l158 158l45 -44z" />
    <glyph glyph-name="uniE166" unicode="&#xe166;" 
d="M512 900l512 -256v-644h-1024v644zM948 610l-436 218l-436 -218l161 -162h549zM64 64h896v466l-146 -146h-603l-147 146v-466v0z" />
    <glyph glyph-name="uniE167" unicode="&#xe167;" 
d="M768 576v-64q38 0 73 -9q34 -8 61 -28q26 -19 42 -49t16 -74q0 -33 -13 -62q-12 -29 -34 -51q-22 -21 -51 -34t-62 -13h-256q-33 0 -62 13q-29 12 -51 34q-21 22 -34 51t-13 62q0 43 16 74q15 30 42 49q26 19 61 28t73 9v64h-32q-46 0 -87 -18q-41 -17 -71 -48
q-30 -30 -48 -71q-18 -40 -18 -87q0 -46 18 -87q17 -41 48 -71q30 -30 71 -48q40 -18 87 -18h256q46 0 87 18q41 17 71 48q30 30 48 71q18 40 18 87q0 46 -18 87q-17 41 -48 71q-30 30 -71 48q-40 18 -87 18h-32v0zM448 320v64q38 0 73 9q34 8 61 28q26 19 42 49t16 74
q0 33 -13 62q-12 29 -34 51q-22 21 -51 34t-62 13h-256q-33 0 -62 -13q-29 -12 -51 -34q-21 -22 -34 -51t-13 -62q0 -43 16 -74q15 -30 42 -49q26 -19 61 -28t73 -9v-64h-32q-46 0 -87 18q-41 17 -71 48q-30 30 -48 71q-18 40 -18 87q0 46 18 87q17 41 48 71q30 30 71 48
q40 18 87 18h256q46 0 87 -18q41 -17 71 -48q30 -30 48 -71q18 -40 18 -87q0 -46 -18 -87q-17 -41 -48 -71q-30 -30 -71 -48q-40 -18 -87 -18h-32v0z" />
    <glyph glyph-name="uniE168" unicode="&#xe168;" 
d="M512 960q70 0 136 -18q65 -18 122 -52q57 -33 104 -80q47 -46 80 -103t52 -123q18 -65 18 -136q0 -27 -5 -57t-16 -58q-10 -29 -26 -54q-16 -26 -38 -45q-21 -19 -48 -31q-27 -11 -59 -11q-27 0 -53 7q-25 7 -47 21q-22 13 -41 33q-18 19 -30 44q-15 -23 -34 -43
q-20 -19 -43 -33t-49 -21q-26 -8 -55 -8q-51 0 -92 22q-42 22 -71 58t-45 82t-16 94q0 47 16 93q15 46 45 82q29 36 70 59q42 22 93 22q47 0 88 -20q41 -21 72 -56v76h64v-320q0 -26 10 -50q10 -23 27 -40q18 -18 41 -28t50 -10q22 0 40 9t33 25q14 15 24 35q11 19 18 41
q6 21 10 43q3 21 3 39q0 61 -16 119q-16 57 -45 107q-29 49 -70 90t-91 71q-50 29 -107 45t-119 16q-61 0 -119 -16q-57 -16 -107 -45q-49 -29 -90 -70t-71 -91q-29 -50 -45 -107t-16 -119q0 -61 16 -119q16 -57 45 -107q29 -49 70 -90t91 -71q50 -29 107 -45t119 -16
q89 0 171 34l25 -59q-47 -19 -96 -29t-100 -10q-70 0 -136 18q-65 18 -122 52q-57 33 -104 80q-47 46 -80 103t-52 123q-18 65 -18 136q0 70 18 136q18 65 52 122q33 57 80 104q46 47 103 80t123 52q65 18 136 18v0zM480 256q37 0 67 17t50 45q21 27 32 62q11 34 11 68
t-11 68t-31 62q-21 27 -51 45q-29 17 -67 17q-37 0 -67 -17t-50 -45q-21 -27 -32 -62q-11 -34 -11 -68t11 -68t31 -62q21 -27 51 -45q29 -17 67 -17v0z" />
    <glyph glyph-name="uniE169" unicode="&#xe169;" 
d="M384 704h640v-64h-640v64v0zM384 384v64h640v-64h-640v0zM384 128v64h640v-64h-640v0zM128 576l-128 128h256z" />
    <glyph glyph-name="uniE16A" unicode="&#xe16a;" 
d="M1024 448h-704v64h704v-64v0zM129 512l-129 -128h256l-127 128v0z" />
    <glyph glyph-name="uniE16B" unicode="&#xe16b;" 
d="M708 192q25 -1 48 -11t40 -28q16 -17 26 -40t10 -49t-10 -50q-10 -23 -28 -40q-17 -17 -40 -28q-24 -10 -50 -10t-50 10q-23 10 -40 28q-17 17 -28 40q-10 23 -10 50q0 35 18 66q18 30 50 47l-133 265l-132 -264q15 -8 28 -20t22 -27t14 -32t5 -35q0 -26 -10 -50
q-10 -23 -28 -40q-17 -17 -40 -28q-24 -10 -50 -10t-50 10q-23 10 -40 28q-17 17 -28 40q-10 23 -10 50q0 25 9 48q10 23 26 40q17 17 39 28q22 10 48 12l161 323l-169 339l28 87l177 -353l176 353l29 -87l-169 -339zM320 0q13 0 25 5q11 5 20 14q9 8 14 20q5 11 5 25
q0 13 -5 25q-5 11 -14 20q-8 9 -20 14q-11 5 -25 5q-13 0 -25 -5q-11 -5 -20 -14q-9 -8 -14 -20q-5 -11 -5 -25q0 -13 5 -25q5 -11 14 -20q8 -9 20 -14q11 -5 25 -5v0zM704 0q13 0 25 5q11 5 20 14q9 8 14 20q5 11 5 25q0 13 -5 25q-5 11 -14 20q-8 9 -20 14q-11 5 -25 5
q-13 0 -25 -5q-11 -5 -20 -14q-9 -8 -14 -20q-5 -11 -5 -25q0 -13 5 -25q5 -11 14 -20q8 -9 20 -14q11 -5 25 -5v0z" />
    <glyph glyph-name="uniE16C" unicode="&#xe16c;" 
d="M768 768v-608q0 -46 -18 -87q-17 -41 -48 -71q-30 -30 -71 -48q-40 -18 -87 -18q-46 0 -87 18q-41 17 -71 48q-30 30 -48 71q-18 40 -18 87v640q0 33 13 62q12 29 34 51q22 21 51 34t62 13t62 -13q29 -12 51 -34q21 -22 34 -51t13 -62v-640q0 -20 -7 -37q-8 -18 -21 -31
t-30 -20q-18 -8 -38 -8t-37 7q-18 8 -31 21t-20 30q-8 18 -8 38v544h64v-544q0 -13 9 -22q10 -10 23 -10t22 9q10 10 10 23v640q0 20 -7 37q-8 18 -21 31t-30 20q-18 8 -38 8t-37 -7q-18 -8 -31 -21t-20 -30q-8 -18 -8 -38v-640q0 -33 13 -62q12 -29 34 -51q22 -21 51 -34
t62 -13t62 13q29 12 51 34q21 22 34 51t13 62v608h64v0z" />
    <glyph glyph-name="uniE16D" unicode="&#xe16d;" 
d="M960 576v-640h-512v64h-384v832h256q0 26 10 49q10 24 28 41q17 17 40 28q23 10 50 10q26 0 49 -10q24 -10 41 -28q17 -17 28 -40q10 -24 10 -50h256v-256h128v0zM256 768v-64h384v64h-128v27q1 14 0 28t-4 28q-3 13 -10 23t-19 16t-31 6q-28 0 -41 -13t-19 -32
q-5 -19 -5 -42q1 -22 1 -41h-128v0zM448 64v512h320v192h-64v-128h-512v128h-64v-704h320v0zM896 512h-384v-512h384v512v0z" />
    <glyph glyph-name="uniE16E" unicode="&#xe16e;" 
d="M0 896h1024v-109l-384 -384v-403h-256v402l-384 384v110v0zM960 814v18h-896v-18l384 -384v-366h128v365z" />
    <glyph glyph-name="uniE16F" unicode="&#xe16f;" 
d="M685 768l275 -274v-558h-640v192h-256v832h365l192 -192h64v0zM704 659v-147h146zM128 192h192v576h210l-127 128h-275v-704v0zM384 0h512v448h-256v256h-256v-704v0z" />
    <glyph glyph-name="uniE170" unicode="&#xe170;" 
d="M320 512q-13 0 -25 5q-11 5 -20 14q-9 8 -14 20q-5 11 -5 25q0 13 5 25q5 11 14 20q8 9 20 14q11 5 25 5q13 0 25 -5q11 -5 20 -14q9 -8 14 -20q5 -11 5 -25q0 -13 -5 -25q-5 -11 -14 -20q-8 -9 -20 -14q-11 -5 -25 -5v0zM704 512q-13 0 -25 5q-11 5 -20 14q-9 8 -14 20
q-5 11 -5 25q0 13 5 25q5 11 14 20q8 9 20 14q11 5 25 5q13 0 25 -5q11 -5 20 -14q9 -8 14 -20q5 -11 5 -25q0 -13 -5 -25q-5 -11 -14 -20q-8 -9 -20 -14q-11 -5 -25 -5v0zM512 960q70 0 136 -18q65 -18 122 -52q57 -33 104 -80q47 -46 80 -103t52 -123q18 -65 18 -136
q0 -70 -18 -136q-18 -65 -52 -122q-33 -57 -80 -104q-46 -47 -103 -80t-123 -52q-65 -18 -136 -18q-70 0 -136 18q-65 18 -122 52q-57 33 -104 80q-47 46 -80 103t-52 123q-18 65 -18 136q0 70 18 136q18 65 52 122q33 57 80 104q46 47 103 80t123 52q65 18 136 18v0zM512 0
q61 0 119 16q57 16 107 45q49 29 90 70t71 91q29 50 45 107t16 119q0 61 -16 119q-16 57 -45 107q-29 49 -70 90t-91 71q-50 29 -107 45t-119 16q-61 0 -119 -16q-57 -16 -107 -45q-49 -29 -90 -70t-71 -91q-29 -50 -45 -107t-16 -119q0 -61 16 -119q16 -57 45 -107
q29 -49 70 -90t91 -71q50 -29 107 -45t119 -16v0zM512 192q36 0 71 10q34 10 63 28q30 19 54 45q23 27 40 59l57 -28q-20 -41 -50 -74t-67 -56t-80 -35q-42 -13 -88 -13t-88 12q-43 13 -80 36t-67 56t-50 73l57 29q16 -32 40 -58q24 -27 53 -45q30 -19 64 -29t71 -10v0z" />
    <glyph glyph-name="uniE171" unicode="&#xe171;" 
d="M576 256h-128v640h128v-640v0zM576 0h-128v128h128v-128v0z" />
    <glyph glyph-name="uniE172" unicode="&#xe172;" 
d="M1024 768v-541q-14 11 -30 20q-16 8 -34 14v407l-448 -224l-448 224v-476h512v-64h-576v640h1024v0zM512 516l376 188h-752zM749 192q25 0 56 1q30 1 60 0q31 -1 59 -7q29 -6 51 -20t36 -39q13 -24 13 -63q0 -26 -10 -50q-10 -23 -28 -40q-17 -17 -40 -28
q-24 -10 -50 -10v64q13 0 25 5q11 5 20 14q9 8 14 20q5 11 5 25q0 13 -5 25q-5 11 -14 20q-8 9 -20 14q-11 5 -25 5h-146l80 -81l-44 -45l-159 158l158 158l45 -44z" />
    <glyph glyph-name="uniE173" unicode="&#xe173;" 
d="M384 576l256 -128l-256 -128v256v0zM432 499v-101l100 50zM0 832h1024v-768h-1024v768v0zM960 128v640h-896v-640h896v0zM896 704v-512h-768v512h768v0zM832 256v384h-640v-384h640v0z" />
    <glyph glyph-name="uniE174" unicode="&#xe174;" 
d="M534 710l-44 -44l-169 168l-1 -898h-64v899l-169 -169l-45 44l246 247zM938 231l45 -45l-246 -247l-247 246l45 45l169 -168v898h64v-899z" />
    <glyph glyph-name="uniE175" unicode="&#xe175;" 
d="M1024 320v64h-64v-64h64v0zM1024 512v64h-64v-64h64v0zM832 512v64h-832v-64h832v0zM1024 704v64h-64v-64h64v0zM832 768h-832v-64h832v64v0zM832 320v64h-832v-64h832v0zM1024 128v64h-64v-64h64v0zM832 128v64h-832v-64h832v0z" />
    <glyph glyph-name="uniE176" unicode="&#xe176;" 
d="M0 512v-64h411l-149 -149l37 -37l219 218l-219 218l-37 -36l149 -150h-411v0zM1024 256v448h-448v-448h448v0zM960 640v-320h-320v320h320v0z" />
    <glyph glyph-name="uniE177" unicode="&#xe177;" 
d="M960 832h-960v-704h960v704v0zM64 192v576h384v-64h64v64h384v-576h-384v64h-64v-64h-384v0zM384 447v64h-158l47 48l-34 34l-113 -114l113 -112l34 34l-46 46h157v0zM512 512v128h-64v-128h64v0zM512 320v128h-64v-128h64v0z" />
    <glyph glyph-name="uniE178" unicode="&#xe178;" 
d="M896 384h128v-448h-640v448h128v128h384v-128v0zM576 448v-64h256v64h-256v0zM960 320h-512v-128h64v64h64v-64h256v64h64v-64h64v128v0zM448 0h512v128h-64v-64h-64v64h-256v-64h-64v64h-64v-128v0zM64 768v-384h256v-64h-320v512h896v-256h-64v192h-768v0z" />
    <glyph glyph-name="uniE179" unicode="&#xe179;" 
d="M0 128v192h192v-192h-192v0zM64 256v-64h64v64h-64v0zM0 384v192h192v-192h-192v0zM64 512v-64h64v64h-64v0zM0 640v192h192v-192h-192v0zM64 768v-64h64v64h-64v0zM320 448v64h704v-64h-704v0zM320 768h704v-64h-704v64v0zM320 192v64h704v-64h-704v0z" />
    <glyph glyph-name="uniE17A" unicode="&#xe17a;" 
d="M525 160l113 -113l-44 -45l-114 113l-113 -113l-45 44l113 114l-113 113l44 45l114 -113l113 113l45 -44zM896 832q13 0 25 -5q11 -5 20 -14q9 -8 14 -20q5 -11 5 -25v-320h-448v-112l-32 -32l-32 32v112h-448v320q0 13 5 25q5 11 14 20q8 9 20 14q11 5 25 5h832v0z
M896 768h-832v-256h832v256v0zM800 640q-13 0 -22 9q-10 10 -10 23t9 22q10 10 23 10t22 -9q10 -10 10 -23t-9 -22q-10 -10 -23 -10v0zM656 192h304v-64h-304l-32 32zM336 160l-32 -32h-304v64h304z" />
    <glyph glyph-name="uniE17B" unicode="&#xe17b;" 
d="M512 448v-64h64v-128h128v-64h256v-64h-256v-64h-448v64h-256v64h256v64h128v128h64v64h-448v320q0 13 5 25q5 11 14 20q8 9 20 14q11 5 25 5h832q13 0 25 -5q11 -5 20 -14q9 -8 14 -20q5 -11 5 -25v-320h-448v0zM512 192v128h-64v-128h-128v-64h320v64h-128v0zM64 512
h832v256h-832v-256v0zM800 704q13 0 22 -9q10 -10 10 -23t-9 -22q-10 -10 -23 -10t-22 9q-10 10 -10 23t9 22q10 10 23 10v0z" />
    <glyph glyph-name="uniE17C" unicode="&#xe17c;" 
d="M593 369l-81 82v-323h-64v323l-81 -81l-45 44l158 159l158 -158zM64 768h832v-640h-320v64h255v512h-703v-512h256v-64h-320v640v0z" />
    <glyph glyph-name="uniE17D" unicode="&#xe17d;" 
d="M1022 350l-158 159l-158 -158l44 -45l81 81v-291h65v291l81 -81l45 44v0zM896 767h-576v65h576v-64v-1zM768 128h-448v64h448v-64v0zM192 704h-192v192h192v-192v0zM64 768h64v64h-64v-64v0zM192 384h-192v192h192v-192v0zM64 448h64v64h-64v-64v0zM192 64h-192v192h192
v-192v0zM64 128h64v64h-64v-64v0zM704 448h-384v64h448l-64 -64v0z" />
    <glyph glyph-name="uniE181" unicode="&#xe181;" 
d="M1024 256v-320h-320v320h320v0zM960 192h-192v-192h192v192v0zM707 320q-23 31 -52 55t-62 40t-70 25q-37 8 -75 8q-67 0 -125 -25q-59 -24 -102 -68q-43 -43 -68 -101q-25 -59 -25 -126h-64q0 60 17 116q18 56 50 103q33 47 79 83q45 36 102 57q-27 18 -49 42
q-22 23 -38 51t-24 60q-9 31 -9 64q0 53 20 99q20 47 55 82q35 34 81 55q47 20 100 20t99 -20q47 -20 82 -55q34 -35 55 -81q20 -47 20 -100q0 -33 -8 -64q-9 -31 -25 -59q-15 -28 -38 -52q-22 -24 -49 -41q62 -23 113 -67q51 -43 84 -101h-74v0zM256 704q0 -39 15 -74
t41 -61t61 -42q35 -15 75 -15q39 0 74 15t61 41t42 61q15 35 15 75q0 39 -15 74t-41 61t-61 42q-35 15 -75 15q-39 0 -74 -15t-61 -41t-42 -61q-15 -35 -15 -75v0z" />
    <glyph glyph-name="uniE182" unicode="&#xe182;" 
d="M384 61l153 153l45 -44l-230 -231l-230 230l44 45l154 -153v899h64v-899v0zM768 960h64v-832h-64v832v0zM768 -64v64h64v-64h-64v0z" />
    <glyph glyph-name="uniE184" unicode="&#xe184;" 
d="M768 896h192v-896h-384v64h320v576h-832v-576h320v-64h-384v896h192v64h64v-64h448v64h64v-64v0zM64 704h832v128h-128v-64h-64v64h-448v-64h-64v64h-128v-128v0zM593 130l-81 80v-274h-64v274l-81 -80l-45 44l158 159l158 -158zM576 576v-192h-192v192h192v0zM512 448
v64h-64v-64h64v0z" />
    <glyph glyph-name="uniE185" unicode="&#xe185;" 
d="M382 448h-188l-43 -128h-67l170 512h67l134 -401l-40 -81zM361 512l-73 219l-73 -219h146v0zM852 173q8 -21 16 -37q7 -16 17 -27t25 -17t39 -6v-22h-224v22h18t19 2t15 8t6 18q0 7 -3 20q-3 12 -8 27q-4 14 -10 30l-11 28q-5 14 -9 24q-4 9 -6 13h-224q-1 -4 -6 -14
l-10 -23q-6 -13 -12 -28l-12 -29q-5 -14 -8 -27q-3 -12 -3 -20q0 -12 6 -18q6 -5 15 -8q9 -2 19 -2t18 -1v-22h-188v22q24 4 38 10q13 6 22 17q8 10 15 25q6 16 16 40l196 462h41zM706 320l-88 190l-84 -190h172v0z" />
    <glyph glyph-name="uniE186" unicode="&#xe186;" 
d="M832 64v-64h-704v64h704v0zM237 128h-68l277 832h67l278 -832h-67l-85 256h-317zM343 448h274l-137 410z" />
    <glyph glyph-name="uniE187" unicode="&#xe187;" 
d="M960 896v-896h-192q0 54 -19 101q-20 47 -54 81q-35 35 -82 54q-46 20 -101 20q-53 0 -100 -20t-81 -54q-35 -35 -55 -82q-20 -46 -20 -100h-192v896h896v0zM896 832h-768v-768h70q7 37 24 72q16 35 39 64q24 30 54 53q30 24 65 39q-28 17 -51 41t-40 53q-16 28 -24 60
q-9 32 -9 66q0 53 20 100q20 46 55 81q34 35 81 55t100 20t100 -20q46 -20 81 -55q35 -34 55 -81t20 -100q0 -33 -8 -65q-9 -32 -25 -60q-16 -29 -39 -53t-51 -41q35 -16 65 -39t53 -53q23 -29 39 -64t24 -73h70v768v0zM512 320q39 0 74 15t61 41t42 61q15 35 15 75
q0 39 -15 74t-41 61t-61 42q-35 15 -75 15q-39 0 -74 -15t-61 -41t-42 -61q-15 -35 -15 -75q0 -39 15 -74t41 -61t61 -42q35 -15 75 -15v0z" />
    <glyph glyph-name="uniE188" unicode="&#xe188;" 
d="M960 960v-429l-64 -64v-531h-832v1024h896v0z" />
    <glyph glyph-name="uniE189" unicode="&#xe189;" 
d="M320 368q0 -25 -11 -46t-29 -36q-18 -14 -41 -22t-47 -8t-47 8q-23 7 -41 22t-29 36q-11 20 -11 46q0 25 11 46t29 36q18 14 41 22t47 8q16 0 33 -4q16 -3 31 -11v431h64q0 -32 14 -57q14 -26 38 -46q35 -30 56 -68q20 -38 20 -85h-64q0 31 -14 58q-14 26 -38 45l-6 5v0
l-6 5v-385v0zM192 320q10 0 21 3t21 9q9 6 16 15q6 9 6 21t-6 21t-16 15q-9 6 -21 9q-11 3 -21 3t-21 -3t-21 -9q-9 -6 -16 -15q-6 -9 -6 -21t6 -21t16 -15q9 -6 21 -9q11 -3 21 -3v0zM960 176q0 -25 -11 -46t-29 -36q-18 -14 -41 -22t-47 -8t-47 8q-23 7 -41 22t-29 36
q-11 20 -11 46q0 25 11 46t29 36q18 14 41 22t47 8q16 0 33 -4q16 -3 31 -11v334l-320 -80v-415q0 -25 -11 -46t-29 -36q-18 -14 -41 -22t-47 -8t-47 8q-23 7 -41 22t-29 36q-11 20 -11 46q0 25 11 46t29 36q18 14 41 22t47 8q16 0 33 -4q16 -3 31 -11v368l448 112v-513v0z
M448 64q10 0 21 3t21 9q9 6 16 15q6 9 6 21t-6 21t-16 15q-9 6 -21 9q-11 3 -21 3t-21 -3t-21 -9q-9 -6 -16 -15q-6 -9 -6 -21t6 -21t16 -15q9 -6 21 -9q11 -3 21 -3v0zM832 128q10 0 21 3t21 9q9 6 16 15q6 9 6 21t-6 21t-16 15q-9 6 -21 9q-11 3 -21 3t-21 -3t-21 -9
q-9 -6 -16 -15q-6 -9 -6 -21t6 -21t16 -15q9 -6 21 -9q11 -3 21 -3v0z" />
    <glyph glyph-name="uniE18A" unicode="&#xe18a;" 
d="M512 960l512 -512l-512 -512l-512 512zM68 448l444 -444l444 444l-444 444z" />
    <glyph glyph-name="uniE18C" unicode="&#xe18c;" 
d="M638 222l-158 159l-158 -158l44 -45l82 81v-323h64v323l81 -81l45 44v0zM896 448h-832v512h832v-512v0zM128 512h704v384h-704v-384v0z" />
    <glyph glyph-name="uniE18D" unicode="&#xe18d;" 
d="M261 234l219 219l218 -218l-36 -37l-150 148v-410h-64v410l-149 -148zM256 960h448v-448h-448v448v0zM640 576v320h-320v-320h320v0z" />
    <glyph glyph-name="uniE18F" unicode="&#xe18f;" 
d="M928 768q20 0 37 -7q18 -8 31 -21t20 -30q8 -18 8 -38v-448q0 -20 -7 -37q-8 -18 -21 -31t-30 -20q-18 -8 -38 -8h-832q-20 0 -37 7q-18 8 -31 21t-20 30q-8 18 -8 38v448q0 20 7 37q8 18 21 31t30 20q18 8 38 8h832v0zM960 672q0 13 -9 22q-10 10 -23 10h-832
q-13 0 -22 -9q-10 -10 -10 -23v-448q0 -13 9 -22q10 -10 23 -10h832q13 0 22 9q10 10 10 23v448v0zM224 384q13 0 22 -9q10 -10 10 -23t-9 -22q-10 -10 -23 -10t-22 9q-10 10 -10 23t9 22q10 10 23 10v0zM416 384q13 0 22 -9q10 -10 10 -23t-9 -22q-10 -10 -23 -10t-22 9
q-10 10 -10 23t9 22q10 10 23 10v0zM608 384q13 0 22 -9q10 -10 10 -23t-9 -22q-10 -10 -23 -10t-22 9q-10 10 -10 23t9 22q10 10 23 10v0zM800 384q13 0 22 -9q10 -10 10 -23t-9 -22q-10 -10 -23 -10t-22 9q-10 10 -10 23t9 22q10 10 23 10v0z" />
    <glyph glyph-name="uniE190" unicode="&#xe190;" 
d="M352 640q-33 0 -62 -13q-29 -12 -51 -34q-21 -22 -34 -51t-13 -62t13 -62q12 -29 34 -51q22 -21 51 -34t62 -13q32 0 61 12t52 35l45 -45q-31 -32 -72 -49t-86 -17q-46 0 -87 18q-41 17 -71 48q-30 30 -48 71q-18 40 -18 87q0 46 18 87q17 41 48 71q30 30 71 48
q40 18 87 18q44 0 86 -17q41 -17 72 -48l-45 -46q-22 22 -52 35q-29 12 -61 12v0zM736 640q-33 0 -62 -13q-29 -12 -51 -34q-21 -22 -34 -51t-13 -62t13 -62q12 -29 34 -51q22 -21 51 -34t62 -13q32 0 61 12t52 35l45 -45q-31 -32 -72 -49t-86 -17q-46 0 -87 18
q-41 17 -71 48q-30 30 -48 71q-18 40 -18 87q0 46 18 87q17 41 48 71q30 30 71 48q40 18 87 18q44 0 86 -17q41 -17 72 -48l-45 -46q-22 22 -52 35q-29 12 -61 12v0zM0 832h1024v-704h-1024v704v0zM64 192h896v576h-896v-576v0z" />
    <glyph glyph-name="uniE191" unicode="&#xe191;" 
d="M0 832h1024v-768h-1024v768v0zM960 128v640h-896v-640h896v0zM896 704v-512h-768v512h768v0zM832 256v384h-640v-384h640v0zM640 576v-256h-256v256h256v0zM576 384v128h-128v-128h128v0z" />
    <glyph glyph-name="uniE192" unicode="&#xe192;" 
d="M1024 173v-237h-256v128h-128v128h-128v103q-37 -19 -77 -29q-41 -10 -83 -10q-48 0 -93 12q-45 13 -84 36t-72 55q-32 32 -55 71t-35 84q-13 45 -13 94q0 48 12 93q13 45 36 84t55 72q32 32 71 55t84 35q45 13 94 13q48 0 93 -12q45 -13 84 -36t72 -55q32 -32 55 -71
t35 -84q13 -45 13 -94q0 -25 -4 -50t-11 -49zM960 147l-345 344q11 29 18 58q7 28 7 59q0 59 -23 112q-22 52 -61 91t-92 62q-52 23 -112 23q-59 0 -112 -23q-52 -22 -91 -61t-62 -92q-23 -52 -23 -112q0 -59 23 -112q22 -52 61 -91t92 -62q52 -23 112 -23q48 0 95 16
q47 17 84 48h45v-128h128v-128h128v-128h128v146v1zM256 768q13 0 25 -5q11 -5 20 -14q9 -8 14 -20q5 -11 5 -25q0 -13 -5 -25q-5 -11 -14 -20q-8 -9 -20 -14q-11 -5 -25 -5q-13 0 -25 5q-11 5 -20 14q-9 8 -14 20q-5 11 -5 25q0 13 5 25q5 11 14 20q8 9 20 14q11 5 25 5v0z
" />
    <glyph glyph-name="uniE193" unicode="&#xe193;" 
d="M1024 960v-256q-57 0 -94 -17q-36 -17 -58 -46q-21 -28 -30 -67q-9 -38 -11 -81q-2 -42 -1 -87q2 -44 2 -86h-128v-192l-384 -192v384h-128q0 41 2 86q1 44 -1 87t-11 81q-8 38 -30 67q-21 29 -58 46q-36 17 -94 17v256h64v-192h896v192h64v0zM640 320h-256v-280l256 127
v153v0zM768 384q0 44 -1 87t5 83q5 41 21 78q16 38 50 72h-662q33 -34 49 -72q16 -37 22 -77t5 -83t-1 -88h512v0z" />
    <glyph glyph-name="uniE194" unicode="&#xe194;" 
d="M800 384q46 0 87 -17q41 -18 71 -48q31 -31 48 -72q18 -40 18 -87q0 -46 -17 -87q-18 -41 -48 -71q-31 -31 -72 -48q-40 -18 -87 -18q-46 0 -87 17q-41 18 -71 48q-31 31 -48 72q-18 40 -18 87q0 46 17 87q18 41 48 71q31 31 72 48q40 18 87 18v0zM640 160q0 -33 12 -62
q13 -29 35 -51q21 -22 51 -34q29 -13 62 -13q23 0 46 7q22 6 42 19l-221 222q-13 -19 -20 -42q-7 -22 -7 -46v0zM933 72q13 19 20 42q7 22 7 46q0 33 -13 62q-12 29 -34 51q-22 21 -51 34t-62 13q-23 0 -46 -7q-22 -6 -42 -19zM256 576h-256v256h64v-137q33 60 82 110
q48 49 106 83q58 35 124 53q66 19 136 19t136 -18q65 -18 122 -52q57 -33 104 -80q46 -47 80 -104q33 -56 52 -122q18 -65 18 -136q0 -19 -2 -39q-1 -19 -4 -38q-13 13 -28 25t-31 22v15q1 7 1 15q0 61 -16 119q-16 57 -45 107q-29 49 -70 90t-91 71q-50 29 -107 45t-119 16
q-64 0 -125 -18t-113 -52q-53 -33 -95 -80t-70 -106h147v-64v0zM541 2q10 -16 23 -31q12 -15 25 -28q-18 -3 -38 -5q-19 -2 -39 -2q-57 0 -112 12q-54 13 -104 36q-49 23 -93 57q-44 33 -80 75q-35 42 -62 91t-42 104l61 17q20 -72 62 -132t99 -104q57 -43 126 -68
q70 -24 145 -24h15q7 1 14 1v1z" />
    <glyph glyph-name="uniE195" unicode="&#xe195;" 
d="M804 464q-62 0 -117 -22q-54 -22 -96 -61q-41 -39 -66 -93t-28 -117l-305 -235l124 397l-316 243h392l120 384l120 -384h392l-156 -120l-32 6q-15 2 -31 2h-1zM800 384q46 0 87 -18q41 -17 71 -48q30 -30 48 -71q18 -40 18 -87q0 -46 -18 -87q-17 -41 -48 -71
q-30 -30 -71 -48q-40 -18 -87 -18q-46 0 -87 18q-41 17 -71 48q-30 30 -48 71q-18 40 -18 87q0 46 18 87q17 41 48 71q30 30 71 48q40 18 87 18v0zM640 160q0 -33 13 -62q12 -29 34 -51q22 -21 51 -34t62 -13q23 0 46 7q22 6 42 19l-221 222q-13 -19 -20 -42q-7 -22 -7 -46
v0zM933 72q13 19 20 42q7 22 7 46q0 33 -13 62q-12 29 -34 51q-22 21 -51 34t-62 13q-23 0 -46 -7q-22 -6 -42 -19z" />
    <glyph glyph-name="uniE196" unicode="&#xe196;" 
d="M736 384q46 0 87 -17q41 -18 71 -48q31 -31 48 -72q18 -40 18 -87q0 -46 -17 -87q-18 -41 -48 -71q-31 -31 -72 -48q-40 -18 -87 -18q-46 0 -87 17q-41 18 -71 48q-31 31 -48 72q-18 40 -18 87q0 46 17 87q18 41 48 71q31 31 72 48q40 18 87 18v0zM576 160q0 -33 12 -62
q13 -29 35 -51q21 -22 51 -34q29 -13 62 -13q23 0 46 7q22 6 42 19l-221 222q-13 -19 -20 -42q-7 -22 -7 -46v0zM869 72q13 19 20 42q7 22 7 46q0 33 -13 62q-12 29 -34 51q-22 21 -51 34t-62 13q-23 0 -46 -7q-22 -6 -42 -19zM995 586q-16 -16 -32 -30t-33 -23
q-16 -10 -36 -15t-45 -5q-17 0 -32 2l-67 -67h-91l138 139q13 -4 26 -7q12 -3 26 -3q27 0 52 12l-247 248q-13 -24 -13 -52q0 -13 3 -26q3 -12 7 -25l-246 -246q-12 5 -23 9q-11 5 -22 8t-23 5q-11 1 -25 1q-28 0 -55 -8t-50 -24l241 -241v-91l-96 96l-284 -284l-68 -23
l22 68l285 284l-193 193l22 22q35 35 81 54q46 18 96 18q19 0 39 -3q19 -3 38 -9l189 189q-2 16 -2 33q0 24 5 44t14 37q10 17 24 33q13 15 30 32z" />
    <glyph glyph-name="uniE197" unicode="&#xe197;" 
d="M128 896v-896h640v-64h-704v1024h896v-429l-96 -96l-96 95v366h-640v0zM896 896h-64v-338l32 -33l32 32v339v0zM1014 279l-44 -45l-74 73v-371h-64v371l-73 -73l-45 44l150 151z" />
    <glyph glyph-name="uniE198" unicode="&#xe198;" 
d="M672 384q46 0 87 -17q41 -18 71 -48q31 -31 48 -72q18 -40 18 -87q0 -46 -17 -87q-18 -41 -48 -71q-31 -31 -72 -48q-40 -18 -87 -18q-46 0 -87 17q-41 18 -71 48q-31 31 -48 72q-18 40 -18 87q0 46 17 87q18 41 48 71q31 31 72 48q40 18 87 18v0zM512 160q0 -33 12 -62
q13 -29 35 -51q21 -22 51 -34q29 -13 62 -13q23 0 46 7q22 6 42 19l-221 222q-13 -19 -20 -42q-7 -22 -7 -46v0zM805 72q13 19 20 42q7 22 7 46q0 33 -13 62q-12 29 -34 51q-22 21 -51 34t-62 13q-23 0 -46 -7q-22 -6 -42 -19zM320 576v-256h94q-9 -15 -16 -31t-13 -33h-129
v384h146l192 192h46v-371q-16 -2 -32 -6q-16 -3 -32 -8v275l-146 -146h-110v0z" />
    <glyph glyph-name="uniE199" unicode="&#xe199;" 
d="M651 960h67l-341 -1024h-67l341 1024v0z" />
    <glyph glyph-name="uniE19A" unicode="&#xe19a;" 
d="M832 960v-576q0 -66 -25 -125q-25 -58 -68 -101q-44 -44 -102 -69t-125 -25q-66 0 -125 25q-58 25 -101 68q-44 44 -69 102t-25 125v576h64v-576q0 -53 20 -99q20 -47 55 -82q35 -34 81 -55q47 -20 100 -20t99 20q47 20 82 55q34 35 55 81q20 47 20 100v576h64v0zM192 0
h640v-64h-640v64v0z" />
    <glyph glyph-name="uniE19B" unicode="&#xe19b;" 
d="M592 480q49 0 93 -19q44 -18 77 -51q32 -33 51 -77q19 -43 19 -93q0 -49 -19 -93q-18 -44 -51 -77q-33 -32 -77 -51q-43 -19 -93 -19h-400v896h400q43 0 81 -16t66 -45q28 -28 45 -66q16 -38 16 -81t-16 -81t-45 -66q-28 -28 -66 -45q-38 -16 -81 -16v0zM384 512h96
q26 0 49 10q24 10 41 28q17 17 28 40q10 23 10 50q0 26 -10 49q-10 24 -28 41q-17 17 -40 28q-24 10 -50 10h-96v-256v0zM512 128q26 0 49 10q24 10 41 28q17 17 28 40q10 23 10 50q0 26 -10 49q-10 24 -28 41q-17 17 -40 28q-24 10 -50 10h-128v-256h128v0z" />
    <glyph glyph-name="uniE19C" unicode="&#xe19c;" 
d="M589 256h435v-64h-435l105 -105l-44 -45l-183 182l182 182l45 -44zM832 0v128h64v-192h-832v1024h896v-429l-64 -64v-147h-64v146l-64 64v366h-640v-896h704v0zM896 896h-64v-338l32 -33l32 32v339v0z" />
    <glyph glyph-name="uniE19D" unicode="&#xe19d;" 
d="M960 320q13 0 25 -5q11 -5 20 -14q9 -8 14 -20q5 -11 5 -24q0 -10 -5 -31l-14 -48l-19 -56l-20 -58l-18 -50q-8 -22 -12 -34q-7 -20 -24 -32t-37 -12h-491v384h146l174 173q9 9 22 14t26 5q16 0 31 -6q14 -6 25 -17t18 -26q6 -14 6 -31q0 -3 -2 -11q-1 -8 -4 -19t-6 -24
l-6 -24q-3 -11 -5 -21q-3 -9 -4 -13h155v0zM448 0h64v256h-64v-256v0zM960 256h-237l44 179q0 5 -5 9q-4 4 -10 4l-3 -1l-173 -172v-275h298zM494 576l-174 -173q-9 -9 -22 -14t-26 -5q-16 0 -31 6q-14 6 -25 17t-18 26q-6 14 -6 31q0 4 4 20q3 15 8 34q4 18 9 35q4 17 6 23
h-155q-13 0 -25 5q-11 5 -20 13q-9 9 -14 21q-5 11 -5 24q0 10 5 31l14 48l19 56l20 58l18 50q8 22 12 34q7 20 24 32t37 12h491v-384h-146v0zM576 896h-64v-256h64v256v0zM448 622v274h-298l-86 -256h237l-44 -179q0 -5 5 -9q4 -4 10 -4l3 1z" />
    <glyph glyph-name="uniE19E" unicode="&#xe19e;" 
d="M800 832q15 0 30 -5q14 -4 26 -13t21 -21t14 -26l12 -35l17 -51l22 -61t23 -67q12 -34 22 -66q11 -32 19 -60q8 -27 13 -47q5 -19 5 -28q0 -20 -7 -37q-8 -18 -21 -31t-31 -20q-17 -8 -37 -8h-222q2 -21 8 -39q5 -17 12 -33t15 -32q7 -16 13 -34q6 -17 10 -38t4 -48
q0 -19 -4 -36q-5 -17 -14 -31q-10 -13 -25 -21t-37 -8q-18 0 -30 7q-13 7 -25 19l-285 284q-4 4 -19 7q-15 2 -37 4q-23 1 -51 1q-28 1 -57 1h-59q-29 -1 -54 -1q-25 -1 -44 -1q-18 -1 -27 -1v576h800v0zM64 320h192v448h-192v-448v0zM928 320q13 0 22 9q10 10 10 23
q0 2 -5 19l-13 43l-20 59q-10 33 -22 67q-11 35 -23 69l-21 62l-16 48t-9 27q-4 10 -12 16q-9 6 -19 6h-480v-448q21 0 40 -6q18 -6 33 -22q9 -8 24 -24l36 -37l43 -45l48 -48l46 -47l42 -42l34 -32q15 -13 22 -17q7 0 11 4q5 5 5 12q0 29 -5 52q-4 24 -11 45q-7 20 -16 40
q-8 19 -15 40q-7 20 -12 43t-5 52v32h288v0z" />
    <glyph glyph-name="uniE19F" unicode="&#xe19f;" 
d="M928 640q19 0 37 -7q17 -8 31 -21q13 -13 20 -30q8 -18 8 -38q0 -8 -5 -28q-4 -20 -13 -47l-18 -60l-22 -66l-24 -66l-21 -62l-18 -51t-12 -34q-5 -15 -14 -27t-21 -21q-12 -8 -26 -13t-30 -5h-800v576q11 0 40 -1q29 0 66 -1t77 -1q41 0 76 1q34 1 59 3q24 3 30 8
l284 284q13 13 25 20q13 7 31 7q16 0 31 -6q14 -6 25 -17t18 -26q6 -14 6 -31q0 -33 -4 -58q-3 -24 -9 -43q-6 -18 -14 -34l-14 -31q-7 -15 -13 -33q-5 -17 -8 -41h222v0zM64 128h192v448h-192v-448v0zM800 128q10 0 18 6q9 6 12 16q2 7 9 27l17 48q9 28 21 62l23 69l22 67
l19 59q9 26 14 43q5 16 5 19q0 13 -9 22q-10 10 -23 10h-288q0 24 1 47q1 22 4 44q4 21 11 43q7 21 20 42q15 26 21 54q7 29 7 58v10v0l-1 11q-1 10 -5 8q-3 -3 -10 3q-2 -1 -5 -3q-2 -1 -4 -3l-285 -286q-16 -15 -34 -22q-18 -6 -40 -6v-448h480v0z" />
    <glyph glyph-name="uniE1A0" unicode="&#xe1a0;" 
d="M0 896h1024v-64h-1024v64v0zM0 64v64h1024v-64h-1024v0zM0 448v64h1024v-64h-1024v0zM256 640v64h768v-64h-768v0zM256 256v64h768v-64h-768v0z" />
    <glyph glyph-name="uniE1A1" unicode="&#xe1a1;" 
d="M0 896h1024v-64h-1024v64v0zM128 704h768v-64h-768v64v0zM128 320h768v-64h-768v64v0zM0 64v64h1024v-64h-1024v0zM0 448v64h1024v-64h-1024v0z" />
    <glyph glyph-name="uniE1A2" unicode="&#xe1a2;" 
d="M1024 896v-64h-1024v64h1024v0zM1024 64h-1024v64h1024v-64v0zM1024 448h-1024v64h1024v-64v0zM768 640h-768v64h768v-64v0zM768 256h-768v64h768v-64v0z" />
    <glyph glyph-name="uniE1A3" unicode="&#xe1a3;" 
d="M1024 -29q0 -14 -8 -24q-9 -11 -24 -11q-13 0 -22 9l-393 392q-48 -39 -105 -60t-120 -21q-48 0 -93 12q-45 13 -84 36t-72 55q-32 32 -55 71t-35 84q-13 45 -13 94q0 48 12 93q13 45 36 84t55 72q32 32 71 55t84 35q45 13 94 13q48 0 93 -12q45 -13 84 -36t72 -55
q32 -32 55 -71t35 -84q13 -45 13 -94q0 -62 -21 -120q-21 -57 -60 -105l28 -28l51 -50l65 -64l71 -71l69 -69l60 -62q26 -27 41 -46q16 -18 16 -22v0zM352 320q59 0 112 23q52 22 91 61t62 92q23 52 23 112q0 59 -23 112q-22 52 -61 91t-92 62q-52 23 -112 23
q-59 0 -112 -23q-52 -22 -91 -61t-62 -92q-23 -52 -23 -112q0 -59 23 -112q22 -52 61 -91t92 -62q52 -23 112 -23v0z" />
    <glyph glyph-name="uniE1A4" unicode="&#xe1a4;" 
d="M1024 -29q0 -14 -8 -24q-9 -11 -24 -11q-13 0 -22 9l-393 392q-48 -39 -105 -60t-120 -21q-48 0 -93 12q-45 13 -84 36t-72 55q-32 32 -55 71t-35 84q-13 45 -13 94q0 48 12 93q13 45 36 84t55 72q32 32 71 55t84 35q45 13 94 13q48 0 93 -12q45 -13 84 -36t72 -55
q32 -32 55 -71t35 -84q13 -45 13 -94q0 -62 -21 -120q-21 -57 -60 -105l28 -28l51 -50l65 -64l71 -71l69 -69l60 -62q26 -27 41 -46q16 -18 16 -22v0zM352 320q59 0 112 23q52 22 91 61t62 92q23 52 23 112q0 59 -23 112q-22 52 -61 91t-92 62q-52 23 -112 23
q-59 0 -112 -23q-52 -22 -91 -61t-62 -92q-23 -52 -23 -112q0 -59 23 -112q22 -52 61 -91t92 -62q52 -23 112 -23v0zM192 640h320v-64h-320v64v0z" />
    <glyph glyph-name="uniE1A5" unicode="&#xe1a5;" 
d="M128 896v-896h640v-64h-704v1024h493l339 -338v-174h-64v128h-320v320h-384v0zM576 851v-211h210zM1022 239l-44 -45l-82 80v-338h-64v338l-81 -80l-45 44l158 159z" />
    <glyph glyph-name="uniE1A6" unicode="&#xe1a6;" 
d="M882 165q32 -16 59 -40q26 -24 44 -54q19 -30 29 -64t10 -71h-64q0 39 -15 74t-41 61t-61 42q-35 15 -75 15q-39 0 -74 -15t-61 -41t-42 -61q-15 -35 -15 -75h-64q0 36 10 71q10 34 28 64q19 29 45 54q26 24 59 40q-36 27 -57 68t-21 87q0 39 15 74t41 61t61 42
q35 15 75 15q39 0 74 -15t61 -41t42 -61q15 -35 15 -75q0 -45 -21 -86q-20 -41 -57 -68v-1zM768 192q26 0 49 10q24 10 41 28q17 17 28 40q10 23 10 50q0 26 -10 49q-10 24 -28 41q-17 17 -40 28q-24 10 -50 10t-50 -10q-23 -10 -40 -28q-17 -17 -28 -40q-10 -24 -10 -50
t10 -50q10 -23 28 -40q17 -17 40 -28q23 -10 50 -10v0zM512 320h-512v512h896v-275q-30 17 -64 26v185h-768v-384h448v-64v0z" />
    <glyph glyph-name="uniE1A7" unicode="&#xe1a7;" 
d="M64 384h320v-64h-384v512h896v-206q-16 5 -32 14q-15 9 -32 16v112h-768v-384v0zM736 576q29 0 54 -7q24 -7 50 -21q21 -13 44 -20q22 -7 45 -10q23 -4 47 -5t48 -1v-198q0 -44 -11 -84q-12 -39 -32 -75q-20 -35 -48 -66q-27 -31 -59 -58q-32 -26 -67 -49t-71 -42
q-35 18 -70 41t-67 50t-60 58q-27 31 -48 66q-20 35 -31 75q-12 39 -12 83v199q24 0 48 1q23 1 46 4q22 4 44 11t44 19q26 15 51 22t55 7v0zM960 449q-5 0 -18 2t-30 6q-17 3 -35 8q-19 4 -34 9q-16 5 -26 10t-11 9q-15 10 -33 15q-18 4 -37 4t-37 -4q-18 -5 -34 -14l-1 -1
v-1q-35 -19 -74 -30q-38 -10 -78 -13v-135q0 -52 19 -96q20 -45 52 -82q31 -38 72 -68q40 -31 81 -55q41 24 81 54q40 31 72 68q32 38 51 82q20 45 20 96v136v0z" />
    <glyph glyph-name="uniE1A8" unicode="&#xe1a8;" 
d="M1024 768h-1024v-512l64 64v348l448 -224l448 224v-476h-512v-64h576v640v0zM512 516l-376 188h753zM207 274l-45 44l-159 -158l159 -158l45 44l-82 82h259v64h-259z" />
    <glyph glyph-name="uniE1AA" unicode="&#xe1aa;" 
d="M514 960h-512v-512h64v402l913 -912l45 44l-913 914h403v64v0z" />
    <glyph glyph-name="uniE1AB" unicode="&#xe1ab;" 
d="M1024 768h-1024v-576h1024v576v0zM960 704v-448h-192v448h192v0zM64 256v448h640v-448h-640v0z" />
    <glyph glyph-name="uniE1AC" unicode="&#xe1ac;" 
d="M1024 768h-1024v-576h1024v576v0zM960 704v-448h-640v448h640v0zM64 256v448h192v-448h-192v0z" />
    <glyph glyph-name="uniE1AD" unicode="&#xe1ad;" 
d="M749 665l154 -154h-772v-64h770l-152 -152l45 -45l230 230l-230 230zM67 704h-64v-448h64v448v0z" />
    <glyph glyph-name="uniE1AE" unicode="&#xe1ae;" 
d="M515 512v-64h386l-144 -145l45 -45l222 222l-222 222l-45 -44l146 -146h-388zM451 704h-448v-448h448v448v0zM67 512v128h128v-128h-128v0zM259 640h128v-128h-128v128v0zM387 448v-128h-128v128h128v0zM195 320h-128v128h128v-128v0z" />
    <glyph glyph-name="uniE1AF" unicode="&#xe1af;" 
d="M0 768v-541q15 11 31 20q16 8 33 14v407l448 -224l448 224v-476h-512v-64h576v640h-1024v0zM512 516l-376 188h753zM275 192q-25 0 -56 1q-30 1 -60 0q-31 -1 -59 -7q-29 -6 -51 -20t-36 -39q-13 -24 -13 -63q0 -26 10 -50q11 -23 28 -40t41 -28q23 -10 49 -10v64
q-13 0 -25 5q-11 5 -20 14q-9 8 -14 20q-5 11 -5 25q0 13 5 25q5 11 14 20t20 14q12 5 25 5h147l-81 -81l45 -45l158 158l-158 158l-45 -44z" />
    <glyph glyph-name="uniE1B0" unicode="&#xe1b0;" 
d="M725 641q-5 5 -12 9q-7 3 -14 7q-16 8 -33 15q-9 3 -19 6l-20 4q-11 2 -23 3t-23 1q-60 0 -109 -21t-82 -59q-34 -36 -52 -86q-9 -26 -14 -53q-4 -26 -4 -56q0 -24 3 -45t10 -39q13 -36 37 -62q25 -25 59 -38q33 -12 75 -12q13 0 26 1q12 0 22 2q11 2 21 3t19 4
q10 4 19 7q8 3 16 7q9 3 16 7q8 4 16 9l-15 -71q-17 -7 -35 -13q-17 -5 -35 -9q-38 -8 -84 -8q-53 0 -98 18q-45 17 -77 50q-31 34 -48 80q-18 46 -18 103q0 76 23 138q24 62 68 108q44 45 106 70q63 26 137 26q25 0 48 -3q22 -3 42 -9q40 -10 67 -24z" />
    <glyph glyph-name="uniE1B1" unicode="&#xe1b1;" 
d="M742 201q-41 -23 -93 -35t-114 -12q-139 0 -219 75q-80 77 -80 210q0 134 87 219q87 84 232 84q46 0 86 -6t75 -18v-121q-67 38 -162 38q-80 0 -131 -52q-26 -26 -41 -60t-15 -77q0 -45 14 -78q13 -34 36 -58q46 -48 123 -48q45 0 73 12v109h-114v97h243v-278v-1z" />
    <glyph glyph-name="uniE1B2" unicode="&#xe1b2;" 
d="M689 88h-356v66h356v-65v-1zM363 281v69q12 -10 28 -18q18 -9 36 -14q9 -4 19 -6t19 -3q9 -2 18 -3t17 -1q56 0 83 20t27 59q0 21 -8 35q-10 16 -26 28q-8 6 -17 12t-21 12l-39 20t-27 14l-18 10t-13 7q-12 7 -22 15t-19 16q-17 17 -27 37q-5 11 -7 23t-2 27q0 35 14 60
q8 12 18 23q10 10 23 18q25 17 57 25q16 4 32 7q16 2 33 2q76 0 111 -18v-67q-46 31 -117 31q-9 0 -19 -1t-20 -3q-19 -4 -35 -13q-15 -9 -25 -23q-9 -14 -9 -35q0 -10 1 -19q1 -8 5 -15q7 -14 22 -26l16 -11q8 -6 19 -12l22 -11l25 -12l27 -14t25 -15q12 -7 24 -15l20 -17
q9 -10 17 -20q7 -10 12 -21q11 -22 11 -50q0 -37 -14 -63q-15 -26 -40 -42q-26 -16 -58 -24q-33 -7 -70 -7q-15 0 -33 2t-33 5q-20 4 -36 9q-17 6 -26 13v0z" />
    <glyph glyph-name="uniE1B3" unicode="&#xe1b3;" 
d="M686 644h-212v-163h195v-98h-195v-229h-131v588h343v-97v-1z" />
    <glyph glyph-name="uniE1B4" unicode="&#xe1b4;" 
d="M478 450l205 -296h-85l-179 268q-1 1 -4 5q-2 3 -4 7q-3 4 -6 10l-66 -290h-82l131 588h81l-59 -276q5 4 9 8l12 11l271 257h94z" />
    <glyph glyph-name="uniE1B5" unicode="&#xe1b5;" 
d="M642 304q-11 -13 -27 -22q-15 -10 -32 -17q-18 -6 -37 -10q-18 -3 -38 -3q-31 0 -61 9t-53 28q-21 16 -33 38q-11 22 -18 46q-6 24 -8 49q-1 25 -1 50v270h64v-285q0 -16 2 -33q1 -18 6 -35t13 -31q8 -15 22 -24q13 -10 32 -14t40 -4q23 0 44 5t34 17q12 10 19 23t11 29
q3 15 4 31q1 15 1 31v290h65v-228v-67q-1 -29 -5 -54q-5 -25 -15 -47q-10 -21 -28 -42h-1zM691 89h-358v65h358v-65v0z" />
    <glyph glyph-name="uniE1B6" unicode="&#xe1b6;" 
d="M483 154h-74l131 588h75z" />
    <glyph glyph-name="uniE1B7" unicode="&#xe1b7;" 
d="M774 153h-133l-237 370q-5 8 -9 13l-5 10q-3 3 -4 7q-2 3 -4 7v-407h-131v589h142l122 -194l45 -73l40 -65l30 -48q12 -18 13 -21v401h131v-589v0z" />
    <glyph glyph-name="uniE1B8" unicode="&#xe1b8;" 
d="M708 88h-392v65h392v-64v-1zM676 251h-64v215q-22 -11 -38 -21q-16 -9 -31 -16q-14 -6 -29 -10q-15 -3 -34 -3q-18 0 -36 2q-17 3 -33 9q-16 5 -30 13t-24 18q-39 37 -39 104v213h63v-210q0 -44 26 -69q26 -24 73 -24q17 0 32 3q14 4 29 10t32 15q17 8 38 19v256h64v-523
z" />
    <glyph glyph-name="uniE1B9" unicode="&#xe1b9;" 
d="M914 154h-155l-164 239q-4 5 -8 12l-7 16h-2v-267h-130v267h-2q-2 -4 -6 -11q-3 -7 -8 -15l-21 -30l-20 -29l-29 -43l-41 -60l-54 -79h-156l212 290l-196 265h149l154 -232q5 -7 9 -14q4 -6 7 -12h1v258h130v-258h2q3 6 7 12q3 6 8 13l155 233h149l-196 -265z" />
    <glyph glyph-name="uniE1BA" unicode="&#xe1ba;" 
d="M488 644v-65h-27v225q-2 6 -16 14q-10 6 -29 14q-9 3 -9 6v1q3 4 19 4q7 0 14 -2q7 -1 14 -3q6 -1 12 -3q6 -1 13 -4q8 -3 10 -7q1 0 1 -2v-3v0l-1 -3v-158h23q3 1 6 1q3 1 5 2l6 3q6 4 11 4q4 2 13 2h10q9 0 15 -4q5 -4 5 -9v-2q0 -4 -3 -7q-5 -3 -12 -3h-79zM316 756
q-11 0 -19 -1q-8 0 -13 -1q-19 -1 -29 -3q-5 0 -8 -2q-3 -1 -8 -2q-4 -2 -9 -2h-3q-10 2 -34 13q-11 8 -11 11v0q0 2 5 2h8l8 -2q5 -1 11 -2q5 -1 14 -1h8h5l96 3q2 1 4 1q1 0 4 1q1 0 4 2q2 0 4 1h3q1 0 3 1h3h4h4q17 -3 19 -6v-1q0 -3 -5 -9l-4 -6q-16 -38 -35 -70
t-42 -59t-53 -53q-31 -26 -70 -53q-10 -7 -14 -7h-2v1q0 3 11 12q53 42 102 105q27 36 44 68q17 31 25 60zM742 338v-282h-53v523h53v-198h110v-43h-109h-1zM624 512q-8 -267 -283 -424l-32 37q49 20 91 53q41 33 81 79q39 46 61 97q22 50 29 109h-202v49h254h1z" />
    <glyph glyph-name="uniE1BB" unicode="&#xe1bb;" 
d="M538 775q0 -77 -21 -147t-65 -132q-21 -31 -48 -57t-58 -50q-31 -23 -66 -43q-34 -19 -71 -37l-43 41q128 46 208 137q22 26 39 50q17 25 30 51q12 26 19 56q8 30 11 66h-261v65h326v0zM784 873l-49 -49v-245h130v-65h-130v-295h-65v654h114v0zM865 89h-683v65h683v-65v0
z" />
    <glyph glyph-name="uniE1BC" unicode="&#xe1bc;" 
d="M673 709q-10 -41 -31 -83q-21 -43 -48 -84t-59 -80q-31 -38 -63 -71q-123 -132 -301 -204l-53 43q153 51 264 150q31 27 60 58q29 30 54 63q26 33 46 68q20 36 33 75h-293l31 65h360v0zM576 89h-66l327 653h98l-65 -65l-114 -229h138l-32 -65h-139z" />
    <glyph glyph-name="uniE1BD" unicode="&#xe1bd;" 
d="M187 742h360q0 -72 -8 -132q-8 -61 -25 -113q-16 -51 -41 -95q-25 -43 -59 -81t-77 -71q-43 -32 -97 -63q-17 22 -40 46q-22 23 -45 42q39 11 75 31q35 21 65 48q30 28 54 61q24 34 41 71q17 38 26 78q8 39 8 80h-237v98v0zM841 807l-65 -62v-264h97v-98h-97v-294h-98
v718h163v0z" />
    <glyph glyph-name="uniE1BE" unicode="&#xe1be;" 
d="M657 575v-258h-58v490h58v-195h84v-36h-84v-1zM532 742q-6 -222 -236 -352l-31 32q82 34 147 110q16 19 29 37q13 19 23 38q9 19 16 40q6 21 8 46h-200v49h243h1zM788 122h-555v97h555v-97v0z" />
    <glyph glyph-name="uniE1BF" unicode="&#xe1bf;" 
d="M1024 768h-1024v-576h1024v576v0zM960 704v-448h-640v448h640v0zM64 256v448h192v-448h-192v0zM530 638l-159 -158l159 -158l45 44l-81 82h210v64h-210l81 81z" />
    <glyph glyph-name="uniE1C0" unicode="&#xe1c0;" 
d="M1024 768h-1024v-576h1024v576v0zM960 704v-448h-640v448h640v0zM64 256v448h192v-448h-192v0zM384 512v-64h211l-81 -81l45 -45l158 158l-158 158l-45 -44l81 -82h-211v0z" />
    <glyph glyph-name="uniE1C3" unicode="&#xe1c3;" 
d="M430 449l-44 45l318 319l318 -318l-44 -45l-18 16v-274h-192v192h-128v-192h-192v274zM512 256h64v192h256v-192h64v274l-192 192l-192 -191v-275v0zM1024 128v-64h-1024v64h1024v0zM128 387q-28 5 -51 20t-41 36q-17 21 -26 47q-10 25 -10 54q0 36 7 66q7 29 18 57
q12 28 27 56l32 60q5 10 13 19t18 16q10 6 22 10q11 4 23 4q24 0 40 -11q17 -11 29 -28t21 -37t18 -37l23 -45v0l16 -38q16 -39 10 -41q-7 -2 3 -51q0 -28 -9 -54q-10 -26 -27 -47t-41 -36q-23 -14 -51 -20v-195h-64v195v0zM160 768q-4 0 -12 -9q-7 -9 -16 -23l-17 -31
l-17 -32q-7 -16 -13 -28q-6 -13 -8 -18q-7 -19 -10 -41t-3 -42t7 -37q8 -18 21 -31t30 -20q18 -8 38 -8t37 7q18 8 31 21t20 30q8 18 8 38t-3 42q-2 22 -10 41q-2 5 -8 17q-5 13 -13 28l-17 33l-17 31q-9 14 -16 23t-12 9v0z" />
    <glyph glyph-name="uniE1C4" unicode="&#xe1c4;" 
d="M960 -64h-960l128 384h320v194q-41 6 -76 26q-35 19 -61 49t-40 68q-15 37 -15 79q0 46 18 87q17 41 48 71q30 30 71 48q40 18 87 18q46 0 87 -18q41 -17 71 -48q30 -30 48 -71q18 -40 18 -87q0 -41 -14 -79q-15 -38 -41 -68q-25 -29 -61 -49q-35 -20 -76 -25v-195h320z
M320 736q0 -33 13 -62q12 -29 34 -51q22 -21 51 -34t62 -13t62 13q29 12 51 34q21 22 34 51t13 62t-13 62q-12 29 -34 51q-22 21 -51 34t-62 13t-62 -13q-29 -12 -51 -34q-21 -22 -34 -51t-13 -62v0zM89 0h782l-85 256h-274v-128q0 -4 -4 -8q-3 -3 -9 -5l-10 -2t-9 -1
q-3 0 -9 1q-5 0 -10 2t-9 5t-4 8v128h-274zM512 736q0 -13 -9 -22q-10 -10 -23 -10t-22 9q-10 10 -10 23t9 22q10 10 23 10t22 -9q10 -10 10 -23v0z" />
    <glyph glyph-name="uniE1C5" unicode="&#xe1c5;" 
d="M856 512q35 0 65 -13q31 -13 54 -36q22 -23 36 -54q13 -30 13 -65q0 -33 -12 -64q-13 -30 -37 -54l-224 -224l-45 44l223 225q15 14 23 33t8 40t-8 40t-23 33q-14 14 -33 23q-18 8 -40 8q-20 0 -39 -8t-34 -22l-97 -98h82v-64h-192v192h64v-82q23 23 46 49t49 47
q26 22 55 36q30 14 66 14v0zM896 576h-64v64h64v-64v0zM896 704h-64v64h64v-64v0zM896 832h-64v64h64v-64v0zM768 832h-64v64h64v-64v0zM640 832h-64v64h64v-64v0zM448 896h64v-64h-64v64v0zM320 896h64v-64h-64v64v0zM192 896h64v-64h-64v64v0zM64 896h64v-64h-64v64v0z
M64 768h64v-64h-64v64v0zM64 640h64v-64h-64v64v0zM64 512h64v-64h-64v64v0zM64 384h64v-64h-64v64v0zM64 256h64v-64h-64v64v0zM64 128h64v-64h-64v64v0zM192 128h64v-64h-64v64v0zM320 128h64v-64h-64v64v0zM448 128h64v-64h-64v64v0zM576 128h64v-64h-64v64v0z" />
    <glyph glyph-name="uniE1C6" unicode="&#xe1c6;" 
d="M704 960h256l-128 -128zM319 832h66l278 -832h-67l-85 256h-317l-85 -256h-68zM215 320h274l-137 411z" />
    <glyph glyph-name="uniE1C7" unicode="&#xe1c7;" 
d="M318 832h67l278 -832h-67l-85 256h-317l-85 -256h-68zM215 320h274l-137 411zM832 960l128 -128h-256z" />
    <glyph glyph-name="uniE1C8" unicode="&#xe1c8;" 
d="M705 896l278 -832h-67l-85 256h-317l-85 -256h-68l-42 128h-189l-43 -128h-67l170 512h67l137 -410l244 730h67v0zM151 256h146l-73 218zM535 384h274l-137 410z" />
    <glyph glyph-name="uniE1C9" unicode="&#xe1c9;" 
d="M768 960q13 0 25 -5q11 -5 20 -14q9 -8 14 -20q5 -11 5 -25v-896q0 -13 -5 -25q-5 -11 -14 -20q-8 -9 -20 -14q-11 -5 -25 -5h-512q-13 0 -25 5q-11 5 -20 14q-9 8 -14 20q-5 11 -5 25v896q0 13 5 25q5 11 14 20q8 9 20 14q11 5 25 5h512v0zM768 896h-512v-896h512v896v0
zM448 128h128v-64h-128v64v0z" />
    <glyph glyph-name="uniE1CA" unicode="&#xe1ca;" 
d="M192 192h464l64 -64h-592v530l-81 -80l-45 44l158 159l158 -158l-44 -45l-82 80v-466v0zM977 318l45 -44l-158 -159l-158 158l44 45l82 -80v466h-464l-64 64h592v-530z" />
    <glyph glyph-name="uniE1CB" unicode="&#xe1cb;" 
d="M832 677q44 -19 79 -49q36 -30 61 -69q25 -38 38 -82q14 -45 14 -93q0 -66 -25 -125q-25 -58 -68 -101q-44 -44 -102 -69t-125 -25q-52 0 -101 16t-91 48l-128 -128l-384 384l448 448h384v-154v-1zM384 91l384 383v158q-9 2 -22 3q-13 0 -27 1l-28 2q-14 2 -26 6
q-11 3 -18 10q-7 6 -7 18q0 13 9 22q10 10 23 10h48q24 -1 48 -6v70h-293l-384 -384zM704 128q53 0 99 20q47 20 82 55q34 35 55 81q20 47 20 100q0 34 -9 66q-9 33 -25 62q-17 28 -41 52q-23 24 -53 41v-157l-274 -274q32 -22 69 -34q38 -12 77 -12v0z" />
    <glyph glyph-name="uniE1CC" unicode="&#xe1cc;" 
d="M704 806q-14 -10 -30 -17t-34 -11v65q28 9 53 23q25 13 49 30h26v-384h-64v294v0zM1024 448q0 -70 -18 -136q-18 -65 -52 -122q-33 -57 -80 -104q-46 -47 -103 -80t-123 -52q-65 -18 -136 -18q-70 0 -136 18q-65 18 -122 52q-57 33 -104 80q-47 46 -80 103t-52 123
q-18 65 -18 136q0 69 18 135t53 125q34 58 83 106t110 82h-136v64h256v-256h-64v149q-58 -28 -106 -70q-47 -42 -80 -95q-34 -53 -52 -114t-18 -126q0 -61 16 -119q16 -57 45 -107q29 -49 70 -90t91 -71q50 -29 107 -45t119 -16q61 0 119 16q57 16 107 45q49 29 90 70t71 91
q29 50 45 107t16 119h64v0z" />
    <glyph glyph-name="uniE1CD" unicode="&#xe1cd;" 
d="M648 941q83 -22 152 -70t119 -113t77 -145q28 -79 28 -165q0 -70 -18 -136q-18 -65 -52 -122q-33 -57 -80 -104q-46 -47 -103 -80t-123 -52q-65 -18 -136 -18q-70 0 -136 18q-65 18 -122 52q-57 33 -104 80q-47 46 -80 103t-52 123q-18 65 -18 136q0 70 18 136
q19 66 53 124t83 106t111 82h-137v64h256v-256h-64v148q-58 -27 -106 -70q-47 -42 -80 -95q-34 -52 -52 -113t-18 -126q0 -61 16 -119q16 -57 45 -107q29 -49 70 -90t91 -71q50 -29 107 -45t119 -16q61 0 119 16q57 16 107 45q49 29 90 70t71 91q29 50 45 107t16 119
q0 75 -24 144q-24 70 -68 127q-43 57 -104 99q-60 41 -132 61l16 62v0z" />
    <glyph glyph-name="uniE1CE" unicode="&#xe1ce;" 
d="M708 333l124 -397l-320 246l-320 -246l124 397l-316 243h392l120 384l120 -384h392zM711 110l-38 123l-39 123l101 78l101 78h-251l-73 233l-73 -233h-251l101 -78l101 -77l-38 -124l-38 -123l198 153z" />
    <glyph glyph-name="uniE1D0" unicode="&#xe1d0;" 
d="M128 960h704v-1024h-704v1024v0zM768 0v896h-576v-896h576v0zM704 832v-192h-448v192h448v0zM640 704v64h-320v-64h320v0zM320 512v-64h-64v64h64v0zM448 448v64h64v-64h-64v0zM640 448v64h64v-64h-64v0zM320 320v-64h-64v64h64v0zM448 256v64h64v-64h-64v0zM640 256v64
h64v-64h-64v0zM320 128v-64h-64v64h64v0zM448 64v64h64v-64h-64v0zM640 64v64h64v-64h-64v0z" />
    <glyph glyph-name="uniE1D1" unicode="&#xe1d1;" 
d="M512 640v-274l128 -128v-283l-160 160l-160 -160v282l128 128v275h-128l160 320l160 -320h-128v0zM480 817l-56 -113h112zM576 110v100l-96 97l-96 -96v-101l96 95z" />
    <glyph glyph-name="uniE1D2" unicode="&#xe1d2;" 
d="M512 896q61 0 119 -16q57 -16 107 -45q49 -29 90 -70t71 -91q29 -50 45 -107t16 -119q0 -61 -16 -119q-16 -57 -45 -107q-29 -49 -70 -90t-91 -71q-50 -29 -107 -45t-119 -16q-61 0 -119 16q-57 16 -107 45q-49 29 -90 70t-71 91q-29 50 -45 107t-16 119q0 61 16 119
q16 57 45 107q29 49 70 90t91 71q50 29 107 45t119 16v0zM512 64q53 0 102 14q49 13 92 38q42 25 77 60t60 78t39 92t14 102t-14 102q-13 49 -38 92q-25 42 -60 77t-78 60t-92 39t-102 14t-102 -14q-49 -13 -92 -38q-42 -25 -77 -60t-60 -78t-39 -92t-14 -102t14 -102
q13 -49 38 -92q25 -42 60 -77t78 -60t92 -39t102 -14v0zM512 640q39 0 74 -15t61 -41t42 -61q15 -35 15 -75q0 -39 -15 -74t-41 -61t-61 -42q-35 -15 -75 -15q-39 0 -74 15t-61 41t-42 61q-15 35 -15 75q0 39 15 74t41 61t61 42q35 15 75 15v0z" />
    <glyph glyph-name="uniE1D3" unicode="&#xe1d3;" 
d="M320 64v768h192v-768h-192v0zM384 768v-640h64v640h-64v0zM64 64v768h192v-768h-192v0zM128 768v-640h64v640h-64v0zM772 856l244 -732l-204 -68l-244 732zM648 748l204 -611l83 27l-203 611z" />
    <glyph glyph-name="uniE1D4" unicode="&#xe1d4;" 
d="M960 960v-1024h-800q-20 0 -37 7q-18 8 -31 21t-20 30q-8 18 -8 38v800q0 25 11 48q10 23 28 41q18 17 41 28t48 11h768v0zM896 64h-736q-13 0 -22 -9q-10 -10 -10 -23t9 -22q10 -10 23 -10h736v64v0zM896 896h-704q-11 0 -23 -6q-11 -5 -20 -14t-15 -21q-6 -11 -6 -23
v-709q16 5 32 5h736v768v0zM662 192q-51 0 -106 21q-55 20 -108 56q-52 35 -98 82q-47 46 -82 99q-35 52 -55 106q-21 54 -21 105q0 27 5 47q4 19 14 36q9 16 24 31l32 34q12 11 26 17t30 6t31 -6q14 -6 25 -17q12 -12 27 -25q16 -13 30 -28q13 -15 23 -32q9 -17 9 -37
q0 -15 -5 -27t-13 -23q-8 -10 -18 -19t-20 -19l-4 -11q0 -3 11 -16t29 -31l37 -39l40 -39l33 -32l19 -19q4 -4 11 -4q5 0 11 4l11 11q6 7 14 15q7 8 16 14q9 7 21 11q11 5 26 5q19 0 36 -9t32 -23t29 -29q13 -16 25 -28q11 -11 17 -25q6 -15 6 -30q0 -16 -6 -31
q-6 -14 -17 -25q-18 -19 -33 -33t-31 -23q-16 -10 -36 -15t-47 -5v0zM324 768q-6 0 -11 -4q-13 -14 -24 -24t-18 -21t-11 -24t-4 -33q0 -43 18 -90q19 -46 50 -91q32 -45 73 -86t86 -72q45 -30 91 -49q46 -18 88 -18q20 0 33 4q13 3 24 11q11 7 21 18l23 24l5 10q0 2 -5 10
q-5 7 -14 16q-8 9 -18 19q-9 9 -18 17l-16 14q-7 5 -10 5q-8 0 -16 -9q-9 -10 -20 -21t-26 -21q-15 -9 -37 -9q-16 0 -30 6q-14 5 -26 17l-165 165q-23 23 -23 56q0 21 9 36t21 27q11 11 20 19q10 9 10 17q0 2 -5 10q-5 7 -14 16l-17 19l-19 17l-16 14q-7 5 -9 5v0z" />
    <glyph glyph-name="uniE1D5" unicode="&#xe1d5;" 
d="M800 704q46 0 87 -18q41 -17 71 -48q30 -30 48 -71q18 -40 18 -87q0 -46 -18 -87q-17 -41 -48 -71q-30 -30 -71 -48q-40 -18 -87 -18h-576q-46 0 -87 18q-41 17 -71 48q-30 30 -48 71q-18 40 -18 87q0 46 18 87q17 41 48 71q30 30 71 48q40 18 87 18q46 0 87 -18
q41 -17 71 -48q30 -30 48 -71q18 -40 18 -87q0 -10 -2 -25t-6 -31q-4 -15 -10 -32q-6 -16 -14 -30q-7 -14 -16 -25t-19 -17h262q-9 5 -18 16t-17 26q-7 14 -13 30t-10 32t-7 30q-2 15 -2 26q0 46 18 87q17 41 48 71q30 30 71 48q40 18 87 18v0zM64 480q0 -33 13 -62
q12 -29 34 -51q22 -21 51 -34t62 -13t62 13q29 12 51 34q21 22 34 51t13 62t-13 62q-12 29 -34 51q-22 21 -51 34t-62 13t-62 -13q-29 -12 -51 -34q-21 -22 -34 -51t-13 -62v0zM800 320q33 0 62 13q29 12 51 34q21 22 34 51t13 62t-13 62q-12 29 -34 51q-22 21 -51 34
t-62 13t-62 -13q-29 -12 -51 -34q-21 -22 -34 -51t-13 -62t13 -62q12 -29 34 -51q22 -21 51 -34t62 -13v0z" />
    <glyph glyph-name="uniE1D6" unicode="&#xe1d6;" 
d="M352 192q-20 0 -37 7q-18 8 -31 21t-20 30q-8 18 -8 38v576q0 20 7 37q8 18 21 31t30 20q18 8 38 8h256q20 0 37 -7q18 -8 31 -21t20 -30q8 -18 8 -38v-576q0 -20 -7 -37q-8 -18 -21 -31t-30 -20q-18 -8 -38 -8h-256v0zM320 288q0 -13 9 -22q10 -10 23 -10h256q13 0 22 9
q10 10 10 23v576q0 13 -9 22q-10 10 -23 10h-256q-13 0 -22 -9q-10 -10 -10 -23v-576v0zM832 448v-181q0 -42 -16 -79t-43 -64q-28 -28 -65 -44t-79 -16h-117v-64h128v-64h-320v64h128v64h-117q-42 0 -79 16t-64 43q-28 28 -44 65t-16 79v181h64q0 -27 -2 -62q-1 -34 -1 -70
q1 -36 7 -70q6 -33 21 -60q16 -26 43 -42t71 -16h298q43 0 71 16q27 16 42 42q16 26 22 60q5 34 6 70q1 35 0 70q-2 34 -2 62h64v0z" />
    <glyph glyph-name="uniE1D7" unicode="&#xe1d7;" 
d="M320 768h704v-576h-704v576v0zM960 256v448h-576v-448h576v0zM64 448v64h192v-64h-192v0zM0 576v64h256v-64h-256v0zM128 320v64h128v-64h-128v0zM896 640v-64h-448v64h448v0zM704 320v192h192v-192h-192v0zM768 448v-64h64v64h-64v0zM640 384v-64h-192v64h192v0z
M640 512v-64h-192v64h192v0z" />
    <glyph glyph-name="uniE1D8" unicode="&#xe1d8;" 
d="M128 320v64h320v-320h-64v210l-337 -336l-45 44l336 338h-210v0zM1022 913l-336 -337h210v-64h-320v320h64v-210l337 336z" />
    <glyph glyph-name="uniE1D9" unicode="&#xe1d9;" 
d="M640 896h320v-320h-64v210l-722 -722h210v-64h-320v320h64v-210l722 722h-210v64v0z" />
    <glyph glyph-name="uniE1DA" unicode="&#xe1da;" 
d="M896 128h128v-64h-128v-128h-64v128h-128v64h128v128h64v-128v0zM128 896v-896h640v-64h-704v1024h896v-429l-64 -64v-147h-64v146l-64 64v366h-640v0zM896 896h-64v-338l32 -33l32 32v339v0z" />
    <glyph glyph-name="uniE1DB" unicode="&#xe1db;" 
d="M448 512h-64v64h64v-64v0zM640 512h-64v64h64v-64v0zM448 384h-64v64h64v-64v0zM256 384h-64v64h64v-64v0zM576 448h64v-64h-64v64v0zM832 512h-64v64h64v-64v0zM768 448h64v-64h-64v64v0zM576 320h64v-64h-64v64v0zM448 256h-64v64h64v-64v0zM256 256h-64v64h64v-64v0z
M384 192h64v-64h-64v64v0zM192 192h64v-64h-64v64v0zM1024 896v-690q-14 13 -30 22t-34 16v396h-896v-576h560l64 -64h-688v896h192v64h64v-64h512v64h64v-64h192v0zM960 704v128h-128v-64h-64v64h-512v-64h-64v64h-128v-128h896v0zM750 192q24 0 55 1q30 1 60 0
q31 -1 59 -7q29 -6 51 -20t36 -39q13 -24 13 -63q0 -26 -10 -50q-10 -23 -28 -40q-17 -17 -40 -28q-24 -10 -50 -10v64q13 0 25 5q11 5 20 14q9 8 14 20q5 11 5 25q0 13 -5 25q-5 11 -14 20q-8 9 -20 14q-11 5 -25 5h-146l80 -81l-44 -45l-159 158l158 158l45 -44z" />
    <glyph glyph-name="uniE1DD" unicode="&#xe1dd;" 
d="M128 0h384v-64h-448v1024h896v-429l-96 -96l-96 95v366h-640v-896v0zM832 896v-338l32 -33l32 32v339h-64v0zM1024 384v-192h-192v64h76q-20 31 -54 47q-33 17 -70 17q-20 0 -40 -5t-38 -15l235 -235q9 14 14 30t5 33h64q0 -30 -10 -58q-9 -27 -27 -51l27 -28l-44 -45
l-29 28q-28 -19 -60 -28q-32 -10 -65 -10q-26 0 -51 6t-48 17t-43 28q-19 17 -34 38v-89h-64v192h192v-64h-76q20 -31 54 -47q33 -17 70 -17q20 0 40 5t38 15l-235 235q-9 -14 -14 -30t-5 -33h-64q0 30 10 58q9 27 27 51l-27 28l44 45l29 -28q28 19 60 28q32 10 65 10
q26 0 51 -6t48 -17t43 -28q19 -17 34 -38v89h64v0z" />
    <glyph glyph-name="uniE1DE" unicode="&#xe1de;" 
d="M512 192h-64v64h64v-64v0zM512 768h-64v-448h64v448v0zM480 -62q-59 34 -118 74t-112 86q-53 45 -99 97t-79 112q-34 59 -53 126t-19 143v256q41 0 80 3t76 11t73 22q36 15 72 38q43 27 85 41q43 13 94 13q25 0 48 -3t45 -10t43 -17t42 -24q36 -23 72 -37q36 -15 73 -23
t76 -11t81 -3v-256q0 -75 -19 -142t-52 -127q-34 -59 -80 -111q-45 -52 -99 -98q-53 -46 -112 -86q-58 -39 -118 -74v0zM64 769v-193q0 -63 17 -122q16 -58 45 -111t69 -100t86 -89t97 -77q51 -36 102 -65q51 29 102 64q50 36 96 78q46 41 86 89q40 47 69 100q29 52 46 111
q17 58 17 122v193q-74 4 -143 24q-68 20 -131 60q-34 22 -68 33q-33 10 -74 10q-40 0 -74 -10t-68 -32q-63 -41 -131 -61t-143 -24v0z" />
    <glyph glyph-name="uniE1DF" unicode="&#xe1df;" 
d="M128 0h384v-64h-448v1024h896v-429l-96 -96l-96 95v366h-640v-896v0zM832 896v-338l32 -33l32 32v339h-64v0zM1024 384v-192h-192v64h76q-20 31 -54 47q-33 17 -70 17q-27 0 -53 -9t-46 -26t-33 -40q-12 -24 -12 -53h-64q0 42 17 78q17 35 46 60q29 26 67 40q37 14 78 14
q26 0 51 -6t48 -17t43 -28q19 -17 34 -38v89h64v0zM816 0q27 0 53 9q25 9 46 26q20 17 32 40q13 24 13 53h64q0 -42 -17 -78q-17 -35 -46 -60q-29 -26 -67 -40q-37 -14 -78 -14q-26 0 -51 6t-48 17t-43 28q-19 17 -34 38v-89h-64v192h192v-64h-76q20 -31 54 -47
q33 -17 70 -17v0z" />
    <glyph glyph-name="uniE1E0" unicode="&#xe1e0;" 
d="M650 405q-13 -8 -26 -18q-12 -9 -24 -20q-44 39 -100 60t-116 21q-67 0 -125 -25q-59 -24 -102 -68q-43 -43 -68 -101q-25 -59 -25 -126h-64q0 60 17 116q18 56 50 103q33 47 79 83q45 36 102 57q-27 18 -49 42q-22 23 -38 51t-24 60q-9 31 -9 64q0 53 20 99q20 47 55 82
q35 34 81 55q47 20 100 20t99 -20q47 -20 82 -55q34 -35 55 -81q20 -47 20 -100q0 -33 -8 -64q-9 -31 -25 -59q-15 -28 -38 -52q-22 -24 -49 -41q36 -13 69 -35q33 -21 61 -48v0zM192 704q0 -39 15 -74t41 -61t61 -42q35 -15 75 -15q39 0 74 15t61 41t42 61q15 35 15 75
q0 39 -15 74t-41 61t-61 42q-35 15 -75 15q-39 0 -74 -15t-61 -41t-42 -61q-15 -35 -15 -75v0zM800 384q46 0 87 -18q41 -17 71 -48q30 -30 48 -71q18 -40 18 -87q0 -46 -18 -87q-17 -41 -48 -71q-30 -30 -71 -48q-40 -18 -87 -18q-46 0 -87 18q-41 17 -71 48q-30 30 -48 71
q-18 40 -18 87q0 46 18 87q17 41 48 71q30 30 71 48q40 18 87 18v0zM800 0q23 0 46 7q22 6 42 19l-221 222q-13 -19 -20 -42q-7 -22 -7 -46q0 -33 13 -62q12 -29 34 -51q22 -21 51 -34t62 -13v0zM933 72q13 19 20 42q7 22 7 46q0 33 -13 62q-12 29 -34 51q-22 21 -51 34
t-62 13q-23 0 -46 -7q-22 -6 -42 -19z" />
    <glyph glyph-name="uniE1E1" unicode="&#xe1e1;" 
d="M0 704h1024v-512h-1024v512v0zM960 256v384h-896v-384h896v0zM896 576v-256h-256v256h256v0zM832 384v128h-128v-128h128v0zM576 512v-128h-192v128h192v0zM320 512v-128h-192v128h192v0z" />
    <glyph glyph-name="uniE1E2" unicode="&#xe1e2;" 
d="M1024 128v-64h-128v-128h-64v128h-128v64h128v128h64v-128h128v0zM520 487q47 -18 88 -47q41 -30 72 -68q32 -38 53 -84t29 -96h-64q-12 56 -41 103t-71 81q-41 34 -93 53t-109 19q-44 0 -85 -11q-41 -12 -76 -33q-36 -20 -65 -50q-29 -29 -50 -64q-21 -36 -32 -77
q-12 -41 -12 -85h-64q0 60 18 115q17 56 50 103q32 47 78 83q46 37 102 58q-56 37 -88 93t-32 124q0 53 20 100q20 46 55 81q34 35 81 55t100 20t100 -20q46 -20 81 -55q35 -34 55 -81t20 -100q0 -33 -8 -64q-8 -32 -24 -60q-15 -28 -38 -52q-22 -23 -50 -41v0zM192 704
q0 -40 15 -75q15 -34 41 -61q26 -26 61 -41t75 -15q39 0 74 15t62 41q26 26 41 61t15 75q0 39 -15 74t-41 62q-26 26 -61 41t-75 15t-75 -15q-34 -15 -61 -41q-26 -26 -41 -61t-15 -75v0z" />
    <glyph glyph-name="uniE1E3" unicode="&#xe1e3;" 
d="M928 576q20 0 37 -7q18 -8 31 -21t20 -30q8 -18 8 -38v-291q0 -62 -25 -109t-67 -79t-95 -49q-54 -16 -110 -16q-47 0 -82 5q-35 6 -62 16q-27 11 -48 27q-22 15 -43 36q-22 21 -45 46l-53 55l-33 32l-32 33l-70 -32l-69 -32l-57 124l-67 -65l-66 -65v710l448 -447v357
q0 20 7 37q8 18 21 31t30 20q18 8 38 8q28 0 46 -9q18 -10 29 -25q11 -16 15 -36q5 -21 6 -43t1 -44q-1 -22 -1 -40q16 5 32 5q17 0 34 -6q17 -7 30 -18q13 11 30 17q16 7 34 7q16 0 31 -5t27 -15q12 -9 21 -22t13 -29q17 7 36 7v0zM279 234l-69 150h142l-288 288v-403
l88 87l69 -149zM960 480q0 13 -9 22q-10 10 -23 10q-12 0 -19 -7t-11 -19t-5 -26v-29l2 -27q1 -12 1 -20h-64v96q0 10 1 26q2 16 0 32q-1 15 -9 27q-7 11 -24 11q-13 0 -22 -9q-10 -10 -10 -23v-160h-64v160q0 13 -9 22q-10 10 -23 10t-20 -7q-7 -8 -11 -20q-3 -11 -4 -26
v-29q0 -14 2 -26q1 -13 1 -20v-64h-64v352q0 13 -9 22q-10 10 -23 10t-22 -9q-10 -10 -10 -23v-481q-13 5 -37 16l-50 22t-50 19q-25 8 -40 8q-8 0 -15 -2q-6 -3 -6 -13q0 -9 5 -17q5 -7 11 -13l31 -31l42 -44l47 -49l46 -48l39 -38t26 -22q23 -15 42 -23q19 -9 37 -13
q19 -4 39 -6q20 -1 47 -1q43 0 85 11q42 12 75 35t53 59q21 35 21 84v291v0z" />
    <glyph glyph-name="uniE1E4" unicode="&#xe1e4;" 
d="M960 256h-448v-64h128v-64h-320v64h128v64h-448v576h960v-576v0zM64 768v-448h832v448h-832v0zM192 448v64h64v-64h-64v0zM192 576v64h64v-64h-64v0zM320 448v64h64v-64h-64v0zM320 576v64h64v-64h-64v0zM448 448v64h64v-64h-64v0zM448 576v64h64v-64h-64v0zM576 448v64
h64v-64h-64v0zM576 576v64h64v-64h-64v0zM704 448v64h64v-64h-64v0zM704 576v64h64v-64h-64v0z" />
    </font>
</defs>
</svg>
